<svg width="25" height="25" viewBox="0 0 25 25" fill="none" xmlns="http://www.w3.org/2000/svg">
<path d="M4.41898 18.3013L4.42198 18.299C1.47298 15.167 1.52698 10.2215 4.58398 7.16376C5.93398 5.81376 7.72648 4.98126 9.62398 4.80876C10.5808 4.72509 11.4779 4.30839 12.159 3.63126L12.294 3.49626C14.2365 1.55376 17.373 1.50276 19.3785 3.34251L19.3822 3.33876L19.5397 3.49626L21.7447 5.70126C23.7397 7.69626 23.7397 10.9513 21.7447 12.9463L21.6097 13.0813C20.9347 13.7638 20.5147 14.6638 20.4322 15.6163C20.2672 17.5213 19.4347 19.3138 18.0847 20.6638C14.9647 23.7763 9.89473 23.7763 6.78223 20.6638L4.41898 18.3013ZM4.44148 9.20376C2.83498 11.78 3.10948 15.1963 5.26498 17.4845C5.31198 17.5345 5.36023 17.5843 5.40973 17.6338C6.20926 18.4336 7.1952 19.022 8.27875 19.3459C9.36229 19.6698 10.5094 19.7191 11.6167 19.4893C12.4197 19.3231 13.1857 19.012 13.8772 18.5713C14.2447 18.3388 14.3872 17.8663 14.1997 17.4688L12.0622 12.9838C11.6398 12.1086 10.9305 11.4046 10.0522 10.9888L5.54473 8.87376C5.14723 8.69376 4.67398 8.82876 4.44148 9.20376ZM14.5147 16.3438C14.576 16.4739 14.6689 16.5865 14.7849 16.6715C14.9009 16.7565 15.0364 16.811 15.1789 16.8302C15.3214 16.8494 15.4665 16.8325 15.6008 16.7812C15.7352 16.7299 15.8545 16.6458 15.948 16.5365C16.5815 15.5713 16.9654 14.4639 17.0655 13.3138C17.1705 12.0838 17.7105 10.9288 18.5805 10.0513L18.7155 9.91626C19.0946 9.538 19.3927 9.08651 19.5916 8.58931C19.7906 8.09211 19.8862 7.55961 19.8727 7.02426C19.86 6.48345 19.7359 5.95108 19.5083 5.46035C19.2807 4.96962 18.9544 4.53105 18.5497 4.17201C16.9837 2.78076 14.574 2.88201 13.0822 4.37376L12.9922 4.46376C12.1156 5.33505 10.961 5.87118 9.72973 5.97876C8.60473 6.07626 7.52473 6.44376 6.57973 7.04376C6.00973 7.41126 6.06223 8.26626 6.67723 8.55126L10.3672 10.2988C10.3712 10.2993 10.3752 10.3005 10.3792 10.3025C10.3832 10.3045 10.3867 10.3058 10.3897 10.3063C11.1172 10.6438 11.9722 10.5163 12.5422 9.94626L13.0972 9.39126C13.4497 9.03876 13.5847 8.52126 13.4422 8.04876C13.3197 7.64221 13.3094 7.2101 13.4124 6.79818C13.5154 6.38625 13.7278 6.00983 14.0272 5.70876C14.2531 5.48162 14.5234 5.30345 14.8211 5.18534C15.1189 5.06723 15.4378 5.01173 15.758 5.02228C16.0781 5.03284 16.3927 5.10923 16.682 5.24669C16.9714 5.38415 17.2293 5.57974 17.4397 5.82126C18.2122 6.69126 18.2122 8.02626 17.4397 8.90376C16.8022 9.62376 15.8422 9.85626 15.0022 9.60126C14.7678 9.52879 14.5181 9.52194 14.2801 9.58144C14.0421 9.64094 13.8249 9.76452 13.6522 9.93876L13.1047 10.4863C12.5347 11.0563 12.4072 11.9188 12.7522 12.6463C12.7522 12.6498 12.7537 12.6523 12.7567 12.6538C12.7587 12.6553 12.76 12.6578 12.7605 12.6613L14.5147 16.3438ZM14.7472 6.41376C14.2447 6.91626 14.2447 7.72626 14.7472 8.22876C15.2497 8.73126 16.0672 8.73126 16.5697 8.23626C17.0722 7.73376 17.0722 6.91626 16.5697 6.41376C16.3279 6.1724 16.0002 6.03684 15.6585 6.03684C15.3168 6.03684 14.9891 6.1724 14.7472 6.41376Z" fill="white"/>
</svg>
