<svg width="24" height="24" viewBox="0 0 24 24" fill="none" xmlns="http://www.w3.org/2000/svg">
<path d="M14.0697 6.64642C14.8802 6.80426 15.6251 7.19989 16.209 7.7827C16.7929 8.36551 17.1893 9.10898 17.3474 9.91794M14.0697 3.3335C15.7536 3.52021 17.3239 4.27286 18.5227 5.46786C19.7215 6.66286 20.4775 8.22918 20.6667 9.90966M19.8369 16.5189V19.0036C19.8378 19.2343 19.7905 19.4626 19.6979 19.674C19.6053 19.8853 19.4695 20.075 19.2992 20.231C19.1289 20.3869 18.9279 20.5056 18.709 20.5795C18.49 20.6534 18.2581 20.6809 18.0279 20.6601C15.4744 20.3832 13.0216 19.5123 10.8666 18.1174C8.86157 16.8458 7.1617 15.1492 5.88765 13.148C4.48524 10.9874 3.61249 8.52733 3.34011 5.96727C3.31937 5.73824 3.34664 5.50741 3.42019 5.28947C3.49373 5.07153 3.61193 4.87127 3.76727 4.70142C3.92261 4.53158 4.11168 4.39588 4.32244 4.30296C4.5332 4.21004 4.76104 4.16194 4.99145 4.16173H7.4809C7.88362 4.15777 8.27403 4.30011 8.57938 4.5622C8.88473 4.8243 9.08417 5.18828 9.14054 5.58629C9.24561 6.38144 9.44047 7.16219 9.72141 7.91362C9.83306 8.21006 9.85722 8.53224 9.79104 8.84197C9.72485 9.1517 9.5711 9.436 9.34799 9.66119L8.29412 10.713C9.47541 12.7866 11.1955 14.5034 13.273 15.6824L14.3269 14.6306C14.5525 14.4079 14.8374 14.2544 15.1477 14.1884C15.458 14.1223 15.7808 14.1464 16.0778 14.2579C16.8307 14.5383 17.6129 14.7328 18.4096 14.8376C18.8127 14.8944 19.1808 15.097 19.444 15.407C19.7072 15.717 19.847 16.1128 19.8369 16.5189Z" stroke="white" stroke-width="1.3" stroke-linecap="round" stroke-linejoin="round"/>
</svg>
