<svg width="25" height="25" viewBox="0 0 25 25" fill="none" xmlns="http://www.w3.org/2000/svg">
<path d="M8.17857 5.5C8.17857 4.43913 8.6602 3.42172 9.51751 2.67157C10.3748 1.92143 11.5376 1.5 12.75 1.5C13.9624 1.5 15.1252 1.92143 15.9825 2.67157C16.8398 3.42172 17.3214 4.43913 17.3214 5.5V10.755C18.7191 11.6066 19.7697 12.8262 20.3204 14.2365C20.871 15.6467 20.8929 17.1739 20.3829 18.5958C19.8729 20.0176 18.8575 21.26 17.4847 22.142C16.1119 23.024 14.4532 23.4996 12.75 23.4996C11.0468 23.4996 9.38814 23.024 8.0153 22.142C6.64246 21.26 5.62714 20.0176 5.11712 18.5958C4.6071 17.1739 4.629 15.6467 5.17963 14.2365C5.73025 12.8262 6.78087 11.6066 8.17857 10.755V5.5ZM9.486 12.395C8.48734 13.0031 7.73657 13.8742 7.34298 14.8816C6.94939 15.8889 6.93353 16.9799 7.2977 17.9957C7.66188 19.0115 8.38709 19.899 9.36775 20.5291C10.3484 21.1593 11.5333 21.4991 12.75 21.4991C13.9667 21.4991 15.1516 21.1593 16.1322 20.5291C17.1129 19.899 17.8381 19.0115 18.2023 17.9957C18.5665 16.9799 18.5506 15.8889 18.157 14.8816C17.7634 13.8742 17.0127 13.0031 16.014 12.395L15.0357 11.798V5.5C15.0357 4.96957 14.7949 4.46086 14.3662 4.08579C13.9376 3.71071 13.3562 3.5 12.75 3.5C12.1438 3.5 11.5624 3.71071 11.1338 4.08579C10.7051 4.46086 10.4643 4.96957 10.4643 5.5V11.798L9.486 12.395ZM8.17857 16.5H17.3214C17.3214 17.5609 16.8398 18.5783 15.9825 19.3284C15.1252 20.0786 13.9624 20.5 12.75 20.5C11.5376 20.5 10.3748 20.0786 9.51751 19.3284C8.6602 18.5783 8.17857 17.5609 8.17857 16.5Z" fill="white"/>
</svg>
