<svg width="21" height="13" viewBox="0 0 21 13" fill="none" xmlns="http://www.w3.org/2000/svg">
<path d="M20.8061 11.1148C20.8061 11.0317 20.7231 11.0317 20.7231 10.9487C20.391 10.2845 19.6438 9.45431 18.6475 8.54106C18.1494 8.12595 17.9003 7.79385 17.7343 7.62781C17.4852 7.29571 17.4852 7.04665 17.5683 6.71456C17.6513 6.46549 17.9834 6.05037 18.5645 5.30316C18.8966 4.88805 19.0626 4.63898 19.3117 4.38992C20.5571 2.72946 21.1382 1.65015 20.9722 1.15201L20.8892 1.069C20.8061 0.985976 20.7231 0.902955 20.5571 0.902955C20.391 0.819933 20.142 0.819933 19.8929 0.902955H16.738C16.655 0.902955 16.655 0.902955 16.4889 0.902955C16.4059 0.902955 16.3229 0.902955 16.3229 0.902955H16.2399H16.1569L16.0738 0.985971C15.9908 1.06899 15.9908 1.06899 15.9908 1.15201C15.6587 2.06527 15.2436 2.81247 14.8285 3.6427C14.5794 4.05782 14.3303 4.47294 14.0813 4.80503C13.8322 5.13712 13.6662 5.38619 13.5001 5.55223C13.3341 5.71828 13.168 5.8013 13.085 5.96735C13.002 6.05037 12.8359 6.1334 12.8359 6.05037C12.7529 6.05037 12.6699 6.05037 12.6699 5.96735C12.5869 5.88432 12.5038 5.8013 12.4208 5.71828C12.3378 5.63525 12.3378 5.46921 12.2548 5.30316C12.2548 5.13711 12.2548 4.97107 12.2548 4.88805C12.2548 4.80502 12.2548 4.55596 12.2548 4.38992C12.2548 4.14085 12.2548 3.9748 12.2548 3.89177C12.2548 3.6427 12.2548 3.31062 12.2548 2.97853C12.2548 2.64644 12.2548 2.39736 12.2548 2.23131C12.2548 2.06527 12.2548 1.8162 12.2548 1.65016C12.2548 1.40109 12.2548 1.23504 12.2548 1.15201C12.2548 1.06899 12.1718 0.90295 12.1718 0.819928C12.0887 0.736905 12.0057 0.653879 11.9227 0.570856C11.8397 0.487833 11.6736 0.487836 11.5906 0.404813C11.1755 0.32179 10.6773 0.23877 10.0962 0.23877C8.76782 0.23877 7.85456 0.321795 7.52247 0.487841C7.35643 0.570864 7.19038 0.653882 7.10736 0.819928C6.94131 0.985973 6.94131 1.069 7.02433 1.069C7.43944 1.15202 7.77154 1.31806 7.93759 1.56713L8.02061 1.73318C8.10364 1.81621 8.10362 1.98225 8.18664 2.23131C8.26967 2.48038 8.26967 2.72945 8.26967 3.06154C8.26967 3.55968 8.26967 4.05782 8.26967 4.38992C8.26967 4.80503 8.18664 5.05409 8.18664 5.30316C8.18664 5.55223 8.10364 5.71828 8.02061 5.8013C7.93759 5.96735 7.93758 6.05037 7.85456 6.05037C7.85456 6.05037 7.85455 6.13339 7.77153 6.13339C7.68851 6.13339 7.60549 6.21642 7.43944 6.21642C7.35642 6.21642 7.19038 6.1334 7.10736 6.05037C6.94131 5.96735 6.77526 5.80131 6.69224 5.63526C6.5262 5.46921 6.36015 5.22014 6.1941 4.88805C6.02805 4.55595 5.77897 4.22387 5.61293 3.72573L5.4469 3.39364C5.36387 3.2276 5.19783 2.8955 5.03178 2.48039C4.86574 2.06527 4.69969 1.73318 4.53364 1.31807C4.45062 1.15202 4.3676 1.06899 4.28458 0.985971H4.20155C4.20155 0.985971 4.11852 0.902955 4.0355 0.902955C3.95248 0.902955 3.86946 0.819928 3.78644 0.819928H0.797609C0.465517 0.819928 0.299474 0.902948 0.216451 0.985971L0.133423 1.069C0.133423 1.069 0.133423 1.15202 0.133423 1.23504C0.133423 1.31807 0.133428 1.40108 0.216451 1.56713C0.631565 2.5634 1.1297 3.55968 1.62784 4.55596C2.12598 5.46921 2.62412 6.29944 2.95621 6.8806C3.37132 7.46176 3.70341 8.04292 4.11853 8.54106C4.53364 9.0392 4.7827 9.37129 4.86573 9.53734C5.03177 9.70338 5.11479 9.7864 5.19781 9.86942L5.4469 10.1185C5.61294 10.2845 5.86201 10.5336 6.1941 10.7827C6.52619 11.0317 6.9413 11.2808 7.35642 11.5299C7.77153 11.7789 8.26968 11.945 8.76781 12.1111C9.34898 12.2771 9.84711 12.3601 10.3452 12.2771H11.5906C11.8397 12.2771 12.0057 12.1941 12.1718 12.028L12.2548 11.945C12.2548 11.862 12.3378 11.862 12.3378 11.779C12.3378 11.6959 12.3378 11.6129 12.3378 11.4469C12.3378 11.1148 12.3378 10.8657 12.4208 10.6166C12.5038 10.3676 12.5039 10.2015 12.5869 10.0355C12.6699 9.86943 12.7529 9.7864 12.8359 9.70338C12.919 9.62036 13.002 9.53734 13.002 9.53734H13.085C13.251 9.45431 13.5001 9.53733 13.6662 9.70338C13.9152 9.86942 14.1643 10.1185 14.3303 10.3676C14.4964 10.6166 14.7455 10.8657 15.0776 11.1978C15.4097 11.5299 15.6587 11.779 15.8248 11.862L16.0738 12.028C16.2399 12.111 16.4059 12.1941 16.655 12.2771C16.9041 12.3601 17.0701 12.3601 17.2361 12.3601L20.0589 12.2771C20.308 12.2771 20.5571 12.1941 20.7231 12.1111C20.8892 12.028 20.9722 11.945 20.9722 11.779C20.9722 11.6959 20.9722 11.5299 20.9722 11.4469C20.8061 11.2808 20.8061 11.1978 20.8061 11.1148Z" fill="white"/>
</svg>
