<?xml version="1.0" encoding="UTF-8"?>
<svg id="_Слой_2" data-name="Слой 2" xmlns="http://www.w3.org/2000/svg" xmlns:xlink="http://www.w3.org/1999/xlink" viewBox="0 0 130.54 85.31">
  <defs>
    <style>
      .cls-1 {
        fill: #fff;
      }

      .cls-2 {
        fill: url(#linear-gradient);
      }

      .cls-3 {
        fill: #231f20;
      }
    </style>
    <linearGradient id="linear-gradient" x1="51.84" y1="29.8" x2="77.77" y2="93.98" gradientUnits="userSpaceOnUse">
      <stop offset="0" stop-color="#e01b22"/>
      <stop offset=".32" stop-color="#dd1a21"/>
      <stop offset=".48" stop-color="#d6191f"/>
      <stop offset=".6" stop-color="#c9161c"/>
      <stop offset=".71" stop-color="#b61318"/>
      <stop offset=".8" stop-color="#9e0f13"/>
      <stop offset=".88" stop-color="#800a0c"/>
      <stop offset=".96" stop-color="#5e0304"/>
      <stop offset="1" stop-color="#480000"/>
    </linearGradient>
  </defs>
  <g id="Layer_1" data-name="Layer 1">
    <g>
      <g>
        <polygon class="cls-1" points="27.54 23.53 27.59 23.5 27.59 23.5 27.54 23.53"/>
        <polygon class="cls-1" points="91.6 18.81 91.6 18.82 91.6 18.82 91.6 18.81"/>
        <polygon class="cls-1" points="73.86 18.85 73.86 18.84 73.86 18.84 73.86 18.85"/>
        <polygon class="cls-1" points="98.24 23.4 98.24 23.4 98.23 23.4 98.24 23.4"/>
        <path class="cls-1" d="m127.61,62.46c-1.06.1-2.1.3-3.12.56,2.2-3.71,4.43-8.06,4.46-12.24h0c0-.36-.01-.72-.05-1.08l-.48-4.73-1.65,3.88-.92.14c-.08.01-.15.04-.23.05.22-.36.43-.74.66-1.16,1.12-2.13,1.61-4.18,1.61-6.22v-.03s0-.02,0-.02h0v-.07l.02-1.46.02-1.46-2.11,2.02h0c-.91.87-1.82,1.26-2.77,1.31.13-1.02.24-2.08.24-3.19h0c0-1.96-.29-4.01-1.05-6.08l-.1-.69c-.3-2.19-1.05-3.77-1.66-5.16-.62-1.41-1.14-2.64-1.27-4.48v-.02s-1.42-8.79-1.42-8.79l-1.02,8.93v.06c0,.87-.08,1.62-.08,2.45h0v.04c0,.94.13,1.98.61,3.21l.04.1-.04-.1c.25.65.6,1.36,1.06,2.16l-1.73,1.14h0c-.57.37-1.11.81-1.63,1.31l.37-1.85-2.45,1.63c-1.4.93-2.64,2.03-3.77,3.24-.06-.22-.13-.45-.19-.68l2.08-5.12c.44-1.09.74-2.02.74-3.03h0c0-1.31-.52-2.47-1.38-3.89l-2.2-3.66-.07,4.27c0,.31,0,.59,0,.84,0,.95.03,1.55.08,2h0c.04.34.11.61.18.83h0c.05.15.09.24.11.31.02.06.04.11.06.23.04.22.1.71.12,1.67l.12,5.02c-.4-1.25-.77-2.45-1.2-3.65h0c-.52-1.42-1.52-2.9-2.62-4.24h0c-1.11-1.34-2.3-2.52-3.32-3.25l-.14-.1h0c-.27-1.81-.63-3.24-1.57-4.46h0c-.91-1.18-2.21-2-4.05-2.91l-1.96-1.96v1l-4.98-2.43,4.98,4.89v.24l.5.25c1.11,1.1,1.79,1.9,2.2,2.47h0c.64.91.64,1.16.92,1.82h0c.14.33.35.71.69,1.09.33.37.75.73,1.34,1.16l.12.09.07.22h0c.15.47.29,1.12.38,1.85-1.01-1.29-2.33-2.37-3.98-3.18-1.2-.59-2.32-1.14-3.35-1.72l-.21-.11-.03-.11h0c-.44-1.38-.74-2.21-.98-2.79-.17-.44-.34-.74-.49-.97-.15-.23-.27-.37-.32-.45h0c-.11-.16-.34-.55-.89-2.09l-2.37-6.67v7.08h0c0,1.58.09,2.81.58,3.97.49,1.17,1.31,2.11,2.49,3.19l.04.04.11.09.55.67h0c.96,1.15,1.77,2.22,2.09,3.36h0c.35,1.24.53,2.33.53,3.39s-.17,2.01-.55,3.13h0c-.55,1.56-1.58,2.57-2.93,3.31-.59-.97-1.23-1.91-1.99-2.78l-1.88-2.18c.12-.56.29-1.14.48-1.74h0c.38-1.19.86-2.47,1.12-3.88l.02-.12c.39-.6.71-1.25.74-2.02v-.04s.01-.09.01-.09h0c0-.73-.23-1.38-.54-2.14l-2.86-6.94.51,7.49c.02.3.03.55.03.75,0,.3-.02.49-.04.61-.02.12-.04.17-.06.24h0s-.06.15-.12.32l-.53-.58c-.61-.67-.91-1.05-1.05-1.25h0c-.11-.16-.11-.18-.17-.32h0c-.09-.2-.25-.58-.6-1.02h0c-.35-.45-.88-1.03-1.86-2.02l-3.01-3.04.95,4.17c.33,1.46.7,2.55,1.43,3.45h0c.73.91,1.7,1.44,2.91,1.98l1.15.51c-.66.62-1.41,1.22-2.28,1.84-2.3,1.65-4.04,3.38-5.44,5.55-.83-1.73-1.84-3.37-3.11-4.84l-.76-.87c.04-.38.08-.77.13-1.13h0c.09-.62.19-1.2.3-1.67.1-.47.21-.84.28-.99l.68-1.65.15-.13h0c1.14-1.07,1.97-1.98,2.51-3.09h0c.54-1.12.7-2.32.71-3.82h0v-.02h0v-.02c0-.1,0-.21,0-.31l.87-2.61-.91.46-.11-5.79-2.09,6.89-.21.1v.57c-.38,1.23-.7,2.05-.96,2.6h0c-.42.87-.62,1.04-.98,1.54-.18.25-.37.57-.52.97-.15.4-.25.85-.35,1.44l-.16,1.05-.49.37h0c-.99.76-2.09,2.12-3.16,3.67h0c-.46.68-.89,1.38-1.28,2.08v-1.16l-.2.61c0-.09,0-.16-.01-.25l-.55-5.21-1.81,4.91c-.73,1.98-.95,2.8-1.15,3.29h0c-.1.25-.2.45-.42.81-.17.27-.41.65-.74,1.15-.17-.52-.33-1.04-.5-1.55l-.88-2.75,2.65-3.85c1.34-1.95,2.15-3.39,2.63-4.63h0c.48-1.23.62-2.27.62-3.21h0v-.03c0-.35-.06-1.37-.13-2.56h.05s-.59-9.23-.59-9.23l-.92,4.38v.13s-.01,0-.01,0c0,.27.03.81.06,1.5h-.11c-.06.87-.45,2.47-.89,3.98-.45,1.51-.96,2.98-1.25,3.64-.62,1.4-1.36,2.97-1.67,5.16l-.59,4.19-.15-.47v1.06c-.73-1.22-1.61-2.19-2.6-2.98l-.02-.03h0v-.39l-.39-.19c-.39-.58-.67-1.01-.85-1.31h0c-.32-.55-.39-.71-.58-1.25h0c-.18-.53-.43-1.36-.99-2.85l-1.81-4.9-.55,5.2h0c-.05.51-.09.98-.09,1.43h0v.04c0,.44.05.86.13,1.28l-2.29-1.15,3.24,3.24c.52.7,1.2,1.35,2.09,2.1l.02.06c.3.73.47,1.51.48,2.47,0,.67-.09,1.43-.29,2.3h0c-.26,1.11-.8,2.09-1.52,2.96-.13-1.34-.37-2.68-.75-3.99l-.83-2.82-.16.3c-.14-.24-.28-.44-.39-.59h0c-.24-.32-.42-.54-.72-1.11h0c-.27-.54-.63-1.41-1.06-2.8v-.57l-.21-.1-2.08-6.83-.12,5.73-.91-.46.87,2.61c0,.1,0,.2,0,.29h0v.03c0,1.5.16,2.71.7,3.83h0c.51,1.06,1.29,1.93,2.34,2.92-.31.61-.58,1.24-.82,1.87-1.28-1.73-2.8-3.21-4.75-4.61-1.32-.94-2.38-1.83-3.23-2.8l-2.67-3.04c.19-.17.38-.36.55-.56h0c.73-.91,1.1-2,1.43-3.45l.95-4.17-3.01,3.04c-.87.88-1.39,1.44-1.74,1.87h0c-.26.32-.44.6-.55.82-.12.22-.18.4-.21.45-.05.12-.24.44-1.04,1.32l-.48.27c-1.04.58-2.15,1.13-3.35,1.72-.13.06-.24.14-.36.2.56-.63,1-1.26,1.3-1.98h0c.48-1.17.57-2.39.57-3.98h0v-7.09l-2.37,6.68h0c-.36,1.02-.59,1.55-.73,1.82h0c-.12.21-.15.25-.23.37h0c-.15.19-.4.53-.65,1.11h0c-.11.24-.23.56-.37.94l-2.63,1.88c-1.02.73-2.22,1.91-3.32,3.25h0c-1.1,1.34-2.09,2.82-2.61,4.24h0c-.44,1.23-.82,2.46-1.23,3.75v.02s0-.02,0-.02c-.19.62-.35,1.21-.49,1.74-.35-.48-.71-.94-1.12-1.36l-2.36-2.4.27,3.29c-.56-.77-1.09-1.6-1.62-2.27-.51-.64-1.08-1.16-1.66-1.62v-.43h0c.02-.85.06-1.33.11-1.58h0c.04-.2.05-.24.08-.34.05-.13.19-.47.26-.95h0c.07-.47.11-1.09.11-2.16,0-.25,0-.53,0-.84v-.1l-.06-4.19-2.21,3.68c-.86,1.43-1.38,2.58-1.38,3.89h0c0,.34.04.67.11,1l-1.73-1.14,2.14,4.15h0c.61,1.18,1.19,3.08,1.32,4.86-.28-.26-.55-.57-.82-.93h0c-.74-1.02-1.41-2.5-1.91-4.56l-.91-3.74-1.41,3.58c-.86,2.18-1.16,4.35-1.17,6.4-.33-.21-.68-.4-1.04-.59l-1.54-.8c.06-1.3.27-2.61.28-4.23h0c0-.8-.06-1.67-.24-2.62l-.94-5.11-1.43,4.99C.31,32.91,0,34.64,0,36.06H0v.04c0,1.12.2,2.02.48,2.81H.48c.27.79.58,1.47.86,2.32l.02.07v.21s0,.06,0,.06h0v.03c0,1.52.27,3.04.86,4.59l-.74,2.41c-.57,1.88-.84,3.38-.84,4.71h0v.04c0,1.71.48,3.08,1.16,4.3l.06.11-.06-.11c.68,1.23,1.53,2.37,2.41,3.87h0c.15.26.32.5.49.73l-2.39-1.24.89,2.81c.27.87.62,1.7,1,2.51-.11-.16-.21-.33-.32-.54l-1.6-3.27-.72,3.67.02-.1c-.17.88-.26,1.81-.26,2.76,0,2.77.71,5.74,2.09,8.38,1.37,2.62,3.44,4.92,6.2,6.23h0l.03.02.9.47v-.03c2.41,1.09,5.16,1.37,7.67,1.38,3.06,0,5.87-.43,7.21-.5,5.26-.3,10.14-1.27,14.97-1.94h0c1.49-.19,3.59-.28,5.96-.28h.02c3.45,0,7.5.17,11.29.42,3.35.46,6.81.85,10.27.9h.04c3.08.39,6.05.6,9.01.6s6.06-.22,9.19-.67c2.74-.39,4.53-.54,5.85-.54h0c1.76,0,2.72.25,4.32.58,1.59.33,3.71.73,7.43.94,1.34.07,4.15.5,7.21.5,2.82,0,5.91-.35,8.52-1.8h.03c2.66-1.25,4.54-3.32,5.73-5.69h0c1.19-2.37,1.72-5.04,1.72-7.59,0-1.18-.11-2.33-.33-3.43l-.04-.2v-.05c.71-.65,1.4-1.33,2.03-2.1l1.87-2.28-2.93.28Zm-10.15-24.93c-.06-.29-.09-.59-.09-.9h0c0-1.09.38-2.31,1.02-3.54l.75-1.45c.19.3.4.62.62.94-.6,2.38-1.4,3.92-2.3,4.94Zm-53.44-2.39l.56-.56s.08-.07.12-.1c-.2.28-.39.56-.6.84-.03-.06-.06-.12-.09-.18Zm-22.07-3.23v.02h0c0,1.27-.24,2.47-1,3.83h0c-.08.15-.22.31-.4.46-.08-.63-.17-1.27-.33-1.91h0s-.22-.91-.22-.91c.05-.23.09-.45.09-.67h0v-.02h0c0-.26-.05-.49-.11-.69h0s0,0,0,0c-.04-.12-.08-.21-.1-.27l-.05-.14h0c-.03-.11-.06-.31-.06-.75,0-.2,0-.45.03-.75l.52-7.52-2.87,6.97h0c-.3.74-.51,1.38-.53,2.07h0v.05s0,0,0,.01h0c0,.91.39,1.65.86,2.33l.1.15c-.36.62-.68,1.24-.97,1.88-.45-.58-.8-1.29-.99-2.29h0c-.27-1.46-.46-2.69-.46-3.86,0-.92.11-1.82.39-2.84h0c.3-1.11,1.07-2.14,1.99-3.25l.31-.13c.85-.38,1.57-.76,2.19-1.27l.72,3.92h0c.39,2.09.88,3.92.88,5.6ZM3,47.93l-.03-.05s0,0,0,.01l.02.04Zm83.38-14.26c0-.06-.01-.12-.01-.18h0c0-.36.04-.72.1-1.09l-.09,1.28Z"/>
        <path class="cls-1" d="m79.99,13.56l-.03-.07c.48,1.24,1.29,2.69,2.63,4.64l2.94,4.28-.72-5.14c-.31-2.19-1.05-3.77-1.66-5.16-.62-1.41-1.13-2.64-1.27-4.48v-.02s-1.13-7.59-1.13-7.59l-1.32,7.72v.07c0,.87-.08,1.61-.08,2.45h0v.04c0,.94.13,1.98.61,3.21l.03.07Z"/>
        <path class="cls-1" d="m24.17,25.1h0c.27-.38.41-.74.51-1.02.16-.42.24-.69.65-1.31h0c.38-.58,1.09-1.43,2.34-2.68l.16-.08.34-.17v-.24l4.98-4.9-4.98,2.43v-1l-1.96,1.96c-1.84.91-3.14,1.74-4.05,2.91h0c-.94,1.23-1.3,2.65-1.57,4.46l-.42,2.87,2.35-1.7c.79-.58,1.29-1.04,1.64-1.54Z"/>
      </g>
      <g>
        <path class="cls-3" d="m125.18,47.31c1.06-2.03,1.49-3.89,1.48-5.79-2.52,2.42-5.78,2.3-8.87-.91-2.35-2.45-1.88-5.38-.49-8.07-.8.52-1.55,1.16-2.19,1.96-.95,1.2-2.16,3.37-3.46,4.31-2.53,1.83-5.93,2.74-8.43.14-1.15-1.19-1.73-2.98-1.79-4.63-.17-4.42-1.82-7.73-5.79-9.69-1.2-.59-2.33-1.15-3.41-1.74.97,1.17,1.91,2.36,2.32,3.81.72,2.56.83,4.73-.04,7.26-1.74,5.04-7.93,5.77-12.28,5.58-4.42-.19-8.8-1.82-9.94-6.69-.53-2.28.16-7.72.78-9.21-1.54,1.16-4.42,5.3-5.21,7.74-.68,2.12-4.45,7.08-6.01,8.71-2.54,2.66-1.98,1.29-5.54.53-1.35-.29-3.2-1.88-3.77-3.16-1.65-3.72-3.58-6.06-6.84-8.4-1.36-.98-2.5-1.92-3.44-2.99.65,3.56,1.77,6.66-.26,10.26-1.39,2.46-6.62,2.59-9.2,2.16-3.56-.59-2.28-.61-4.14-3.86-1.25-2.18-1.23-7.59-.38-10.16-1.77,1.26-4.64,4.53-5.5,6.91-.43,1.19-.8,2.41-1.22,3.7-.83,2.57-.76,5.31-4.55,5.54-3.8.23-7.14-1.26-8.77-7.9-3.55,9.03,3.05,17.91-.45,19.9-2.41,1.37-3.97-.89-5.16-3.68-1.97,6.46.07,7.6,2.61,11.94,1.32,2.25,3.91,3.76,3.32,6.17-.3,1.25-3.93,3.09-5.81-.75-1.07,5.44,1.57,13.34,7.42,16.06,4.79,2.77,12.35,1.36,15.17,1.2,10.09-.57,19.04-3.73,29.24-2.25,6.08.88,12.67,1.86,18.83,1.09,6.18-.77,11.23-2.29,17.55-1.48,9.39,1.22,16.08,3.14,24.88.9,5.5-1.23,6.7-6.89,5.25-11.69-1.66-5.49-.48-11.39,1.18-17.21.66-2.34,1.8-3.54,2.9-5.64Z"/>
        <path class="cls-3" d="m4.06,47.31c-1.06-2.03-1.49-3.89-1.48-5.79,2.52,2.42,6.37,4.64,9.46,1.43,2.36-2.45,1.29-7.72-.1-10.41.8.52,1.55,1.16,2.19,1.96.95,1.2,2.16,3.37,3.46,4.31,2.53,1.83,5.93,2.74,8.43.14,1.15-1.19,1.73-2.98,1.8-4.63.16-4.42,1.82-7.73,5.78-9.69,1.2-.59,2.33-1.15,3.41-1.74-.97,1.17-1.92,2.36-2.33,3.81-.72,2.56-.45,4.63.04,7.26,1.13,6.13,7.93,5.77,12.28,5.58,4.41-.19,9.9-2.98,11.04-7.86.54-2.28.37-4.03-.24-5.52,1.54,1.16,2.79,2.77,3.57,5.21.69,2.12,1.34,4.7,2.9,6.33,2.54,2.65,5.09,3.68,8.65,2.91,1.34-.29,3.2-1.88,3.77-3.16,1.65-3.72,3.58-6.06,6.83-8.4,1.36-.98,2.5-1.92,3.44-2.99-.66,3.56-3.04,6.84-1.01,10.44,1.39,2.47,4.75,3.5,7.33,3.08,3.56-.59,5.42-1.7,7.28-4.95,1.25-2.18,1.23-7.59.38-10.16,1.77,1.26,4.64,4.53,5.5,6.91.43,1.19.8,2.41,1.22,3.7.83,2.57.76,5.31,4.55,5.54,3.8.23,7.14-1.26,8.77-7.9,3.55,9.03-3.04,17.91.45,19.9,2.41,1.37,5.06-.04,6.25-2.83.47,4.5-2.56,9.89-5.19,14.17-.25.41-1.79,1.49-1.2,3.9.3,1.25,2.33,2.98,4.21-.86,1.07,5.45-.59,12.63-6.44,15.36-4.8,2.77-12.35,1.36-15.17,1.2-10.09-.57-7.65-2.44-17.86-.96-6.08.88-11.72.85-17.87.08-6.18-.77-21.62-1.86-27.95-1.05-9.39,1.22-18.02,2.43-26.82.19-5.5-1.23-8.07-8.5-4.45-11.4,4.48-3.59-.31-11.68-1.97-17.51-.67-2.34-1.8-3.54-2.9-5.64Z"/>
        <polygon class="cls-2" points="118.15 46.16 108.86 46.16 107.96 46.16 103.44 46.15 102.18 46.15 101.62 46.15 100.52 46.15 96.36 46.15 94.98 46.15 93.88 46.15 35.76 46.11 34.66 46.11 33.27 46.11 29.1 46.11 28.22 46.11 27.42 46.11 26.19 46.11 21.67 46.1 20.54 46.1 11.48 46.1 13.83 61.86 11.45 77.61 20.74 77.62 21.64 77.62 26.16 77.62 27.39 77.63 28.19 77.63 29.08 77.63 33.24 77.63 34.63 77.63 35.73 77.63 93.85 77.66 94.95 77.67 96.34 77.66 100.5 77.67 101.58 77.67 102.15 77.67 103.42 77.67 107.94 77.67 109.06 77.67 118.12 77.68 115.78 61.92 118.15 46.16"/>
        <g>
          <path class="cls-1" d="m15.36,60.16c.42-.8.72.35,1.29-.38-.15-.08-.75.11-.35-.22.2-.03.36-.05.51-.08l-1.8-10.52h4.47c.21-.25.44-.5.61-.72l-.17-.13c-.11-.03-.2-.07-.23-.18l.23.18c.45.12,1.35-.25,1.38.38.4-.3.63-.31.94-.21l-.28.14.14.08-.63.3c.15.13.39-.04.4.17h.85s.06-.03.08-.06c-.01.03-.02.04-.03.06h3.81s.93,0,.93,0c.26-.3.57-.53.91-.48.02.09-.07.32-.05.48h.42c.01-.07.02-.14.03-.17.45,0,.61.05.8.17h3.03s.63,0,.63,0h2.33s2.01,0,2.01,0c.46-.35-.28-.29-.1-.63.55-.52.58-.18.97-.21.05-.05.14-.08.33-.09-.14.06-.24.08-.33.09-.17.18.37.58-.01.8l-.42.04h13.37s-.23-.18-.23-.18l.56-.43c-.04.13-.14.31-.08.62l33.64.02c-.03-.07-.12-.14-.1-.18.19.17.76-.34,1.22-.38-.07.15-.28.45.06.48l.11-.07c.05.06.07.11.07.15h7.4s2.33,0,2.33,0h3.09s.83,0,.83,0h3.54s3.61,0,3.61,0h1.95s1.37,0,1.37,0c0-.01.02-.01.02-.03.65-.31,1.31-.62,1.56-.2l-.05-.08.42.21s-.09.07-.14.11h2.04l-2.23,12.89.28,1.63c.19-.06.37-.03.44.17,0,0-.17.07-.38.16l.11.67c.37.06.78.09,1.14.14.21-.09.35-.18.5-.3l-.4-2.48.27-1.69c-.24,0-.44-.03-.43-.21l.37-.26c.02.16-.24.36-.11.45.04-.08.11-.15.21-.22l.12-.73s0,0,0-.02l.28-1.75c-.04-.06-.13-.13-.05-.17l.07.04,1.35-8.42c-.37.24-.65.14-.97.23.19-.1.64-.54,1.02-.54l.16-1.02h-4.07c-.27.07-.54.14-.76.24.1.17.04.32.08.4-.18-.18-.49-.06-.62.24.31-.51-.34-.2-.79-.18l.26.18c-.2.06-.42-.21-.72.07.36-.03.03-.47-.26-.58.48-.1.25.42.85.03-.27-.2-.15-.27-.08-.41h-1.56s-.56,0-.56,0c-.22.13-.44.17-.68.14-.06.04-.14.04-.27-.04.1.04.18.03.27.04.06-.02.1-.07.13-.14h-4.55s-.5,0-.5,0v.03s-.02-.02-.02-.03h-.8s-.04.02-.04.03l.02.16-.53-.19h-.65s-1.09,0-1.09,0h-3.39s-.64,0-.64,0h-2.41s-21.57-.02-21.57-.02c-.37.24-.76.83-1,.7.47-.17.54-.46.64-.7h-6.49s.09.01.11.04c-.11.08-.26.32-.34,0l-.28.4c-.12-.23.2-.42.43-.45h-27.86s-.8-.01-.8-.01c-.13.2-.34.42.09.32l-.66.57.31.32-1.11.16c.41-.27-.15-.31,0-.53l.77-.11c-.07-.31-.99.02-.48-.56l-.41.28c.01-.22.08-.36.17-.45h-4.32s-.83,0-.83,0h-7.47s-.97,0-.97,0h-6.57c-.2.14-.41.26-.48.55l.03-.46-.53.48c.12.15.42.29.52.22-.16.03-.32.11-.47.2l2,12.6c.29-.19.58-.39.76-.6.21-.56-.58-.29-.8-.35Zm98.25,3.39l.04-.3.38.13-.42.18Zm.37-3.06l-.18.21c-.13-.09-.51-.22,0-.39l-.13.3.31-.11Zm1.29-12.66l.82.11c-.22.24-.4.12-.59.16.07.09.06.17-.26.21.09-.14.17-.19.26-.21-.07-.09-.22-.18-.23-.26Zm-14.53.01l.05.08-.38.28-.13-.09.46-.28Zm-11.77.1l-.06.15c-.09-.04-.17-.05-.25-.07.34.19.78.04,1.1.13l-.72.26c.05.08.02.16.19.17l-.29.05.12-.07-.6-.44c-.62.03.06.48-.24.37-.16-.25-.26-.41-.63-.37.5-.35.87-.4,1.4-.2Zm-20.3.2l-.58.21c-.08.08-.19.14-.34.12l.34-.12c.22-.22.28-.6.58-.21Zm-7.81-.2l.37-.09-.49.5.12-.4Zm-20.22-.08l.51.19-.55-.04.05-.15Z"/>
          <path class="cls-1" d="m15.5,71.69l1.64-9.48c-.2.07-.38.09-.48-.1-.12.87-1.12.68-1.34,1.32,0,.09-.04.15-.07.19l-.49,3.07c.35.2.76-.81.74-.21l-.16.31s.06-.01.08,0h-.08s0,0,0,0c-.16-.02-.38.12-.63.21l-.36,2.27s.01,0,.02,0c0,0-.02.01-.02.02l-.51,3.21c.56-.24,1.02-.63,1.66-.8,0,0,.02,0,.03-.02Z"/>
          <path class="cls-1" d="m96.15,75.28c-.06-.03-.08-.08.06-.17,0,.06-.04.11-.06.17.14.06.53.06.12.38.51.02,1-.44,1.21-.82,0,.23.25.24.01.7.33-.22.52-.3.4-.69,0-.01,0-.02,0-.04h-12.7c-.07.12-.07.24.08.38-.74.19-1.26.47-1.75.9-.36-.18-.58-.5-1.15-.54.05-.26.15-.51.26-.76h-7.91s-.07.06-.07.06l-.03-.07h-5.67s-.02.47-.02.47c-.17,0-.31-.09-.45.07-.22-.16-.08-.41.13-.54l-31.24-.02c-.15.14-.3.28-.43.42l.41.25h-.16c-.14-.1-.74-.28-.38-.64.13,0,.23-.01.31-.04h-1.57s-2.33,0-2.33,0h-5.88c-.08.1-.16.2-.27.29.03-.11.09-.21.09-.29h-.42c-.14.04-.28.11-.42.24.31.73-.4.78-.94,1.19h1.1s.81,0,.81,0h4.94c.46-.08,1.03-.55,1.21-.69.36.15-.2.47.13.69h.02c.33-.09.76-.72,1.13-.82-.4.21-.65.5-.86.82h2.72s3.56,0,3.56,0c.33-.42,1.25-.89,1.66-1.01-.29.33-.88.6-1.04,1.01h5.43c.27-.14.64-.3.69-.55l-.55.03.55-.41c-.09.08-.06.31.33.37-.43.17.01.77-.48.48l.04.09h3.98c.29-.57,1.19,0,1.23-.82l-.29-.02s-.11,0-.18-.01h.18c.3-.02-.04-.46.54-.49l-.2.37c.59.19.91-.33,1.25.15l-.56.5c-.16,0,.32-.52-.3-.33-.3.13-.69.43-1.08.64h6.83c.3-.3.37-.83.62-.71.85-.58.86.45,1.45.44-.08.16-.18.23-.29.27h1l.36-.46c.12.16.39.07.54.14-.01.13-.12.24-.25.32h3.2c.21-.32.66-.58.58-.79-.11.31.51.24.21.63l-.5.17h24.7c-.19-.29.52-.46.61-.71-.05-.04-.08-.1-.07-.21.08.08.09.15.07.21.16.15.61-.12.74.08-.33.21-.05.39-.46.59-.26.06-.75-.32-.85.06h5.09c.53-.26,1.05-.52,1.21-.95Zm-45.75.77l-.64-.04.6-.02-.02-.03.32.02h-.3s.04.06.04.06Zm27.04-.47c.26-.12.45-.24.63-.37.04-.03.08-.06.11-.07-.04.02-.07.05-.11.07-.24.2-.41.58-.63.37Zm4.53-.29c-.19-.17-.55.13-.8.12.27-.07,1.01-.72.8-.12Zm-.3.84c.57.03.19-.3.16-.46l.63.12c-.24.22-.41.44-.79.35Z"/>
          <path class="cls-1" d="m22.37,76.18h.29c.26-.13.16-.49.23-.74.08.19.22.47.19.74h.61l.53-.16c-.34.01-.05-.39-.39-.38.68-.34.84-.03,1.47-.77,0,0-.02,0-.02-.02-.15.05-.28.08-.42.12-.12.08-.22.14-.28.08.08-.02.19-.05.28-.08.14-.1.31-.21.42-.12.12-.04.24-.07.36-.11h-5.43s-5.22,0-5.22,0l.16-.91c-.51,0-1.22,1.04-1.72,1.09l-.2,1.25h7.66s1.2,0,1.2,0h.1c.06-.11.09-.2.19,0Z"/>
          <path class="cls-1" d="m102.25,76.23h.8l-.67-.23c.45-.31.7-.79,1.04-1.2h-1.07s.05.07.06.11l-.55.14.17-.25h-.34c-.07.07-.14.13-.22.15l-.02-.15h-1.42c-.17.12-.35.25-.58.4l.17.24,1.07-.44c-.21.38-.93.75-1.59.73.19.17.42.25.73.33-.09-.03-.1.05-.1.17h2.5Z"/>
          <path class="cls-1" d="m113.99,65.86l.05.08c-.36.37-.63.48-.89.5l1.35,7.89c.11-.1.24-.14.37-.1.04-.03.07-.03.09,0-.03-.02-.06,0-.09,0-.09.06-.22.24-.35.24l.06.33h-5.22s-1.75,0-1.75,0h-1.41c-.06.14-.16.27-.54.38,0,.02.02.03.03.04.16,0,.34.01.47-.02-.19.13-.4.13-.47.02-.19,0-.35.05-.38.26l-.44-.41c-.5-.02-.79.36-1.25.73l.3.42h.24s.02-.05.03-.07c0-.04,0-.09,0-.14-.07-.18-.29-.32.04-.5.06.08-.02.31-.04.5.02.04.02.09,0,.14,0,.03.02.05.03.07h.41c.13-.17,0-.45.39-.37l-.08.23c-.01.06,0,.09-.02.14h.43c.24-.21.52-.43.71-.25l-.14-.08c.3-.14.85.19.55.1-.32.02-.53.11-.7.23h1.95s.97,0,.97,0h7.66s-1.68-10.58-1.68-10.58c-.34.13-.64.33-.68.21Zm2.05,9.06c-.16.59-1,.39-1.25.52-.02.03-.06.06-.07.09,0-.04.03-.07.07-.09.18-.22.56-.32.43-.55l.82.02Zm-1.79-5.37c.21.1-.49.18-.37-.12.28-.28.35-.04.37.12Z"/>
          <g>
            <path class="cls-1" d="m46.41,53.07c-.25-.01-.64-.02-1.18-.02-.27,0-.47,0-.65,0l-.09.07c.23-.07,0,.27.25.3v-.17c.13-.06.17,0,.29,0l-.08-.19c.38.06-.06.28.29.32h-.44s.08.18.08.18c-.18-.15-.5-.04-.51.08-.08-.19.35-.08.21-.26-.13-.14-.22-.06-.29.07l-.19-.18.24.03-.02-.23c-.15,0-.25,0-.28.01l-.23.04c.11.13.13.25.25.3-.28.02-.3-.22-.51-.25h0c-.56.15-.97.56-1.23,1.22-.15.43-.24.83-.27,1.18-.05.7-.09,1.75-.12,3.19-.18.7-.44,1.05-.8,1.05h-1.59l-.17-.12v-4.22h-.09s.09-.06.09-.06v-.17l-.29.02.12-.16.17.03v-1.65c0-.25-.2-.38-.62-.38h-2.49c-.41,0-.62.13-.62.38v.67h.06l-.06.02v2.29l.19-.2v-.1s0,.1,0,.1l.27.04c-.48-.04-.02.35-.35.39.06-.11-.03-.12-.11-.12v1.69l.09-.08-.09.08v.04c.2,0,.46.29.66.15l-.04.2-.5.04.12.16c-.23,0-.12-.21-.25-.29v1.27h-.46l.23.16c-.16.04-.29-.16-.37.02-.26-.11-.09-.1-.01-.18h-1.15c-.3,0-.54-.28-.72-.79-.18.02-.35.02-.5-.07-.05.1-.06.33-.25.35l-.07-.26c.14-.23.46-.25.74-.29,0-.33-.02-.63-.03-.92-.2.04-.46,0-.5.08-.2-.02-.11-.11-.03-.19.18.16.35.06.52-.05-.03-.88-.06-1.57-.09-2.08l-.03-.2v-.02s-.05-.28-.05-.28c-.12-.01-.24-.01-.32,0l-.09.06.09-.06c.12-.07.27-.17.17-.22l-.1-.03.1.03.08.03.03-.05h0s-.12-.09-.12-.09l.08-.06c-.15-.47-.38-.85-.71-1.11l-.24-.02-.3.23-.25-.14.05.13c.06,0,.08.19,0,0h-.03s-.57-.26-.57-.26l.25-.3c.28,0,.43.18.72.16l-.25-.14c-.22-.08-.4-.13-.51-.13-.07-.01-.47-.02-1.2-.02-.36,0-.64,0-.87.01-.18.14.13.24-.1.42h.27c-.28-.07-.24.41-.29.35l.03-.28c-.14-.16-.36.14-.42-.06.01-.17.2-.33.31-.38v-.05s-.1,0-.1,0l-.12.04h0c-.24.05-.39.12-.39.22v2.39c0,.09.13.18.39.25.18.02.3.05.38.06.07.02.21.04.41.06.15.03.24.3.26.8.05.66.09,1.67.13,3.04.09.39.44.83,1.05,1.33v.13l-.05.04.17.18.15-.14c-.03.25.48-.13.33.23-.1-.01-.11-.11-.27-.06l-.1.26c-.34.08-.49-.08-.66-.2-.62.44-1.05.93-1.25,1.49h.07s.21-.04.21-.04v.05s-.21-.01-.21-.01l-.08.02h0l.08.09-.08-.08c-.09.26-.15.53-.15.82v4.4h0s0,0,0,0v2.06l.41.39h1.26c.08-.15.32-.27.55-.15.29.11.52-.16.68-.26.03.2.19.23.39.31l.36-.3v-.75l-1.25.11-.04-.02c.33-.22.95-.3,1.29-.28v-1.18h-.04s.04-.01.04-.01v-3.41c0-.28.11-.55.34-.8.22-.27.41-.47.59-.6-.3.06-.39-.06-.57-.21.17,0,.4-.04.39-.14-.32-.14-.44.02-.6-.21l.4-.27.04-.07.04.02-.08.05c-.04.18.43.2.63.31h-.24c-.35.11-.14.33.02.51.16-.12.31-.18.44-.18h.99l-.02-.02.08.02h.54l.18.13v.5c.22,0,.09.23.38.13l-.12.11-.26-.24v5.27c.14-.06.03.18.23.14-.14.06-.19,0-.23-.05v1.14l.47.39h2.79c.31,0,.47-.17.47-.51v-1.61l-.08.14c-.27-.02.06-.28-.17-.28l.25.03v-.59h-.23s.11-.17.11-.17l.12-.02v-4.39l-.07.04.07-.15h0s.02-.01.02-.01l.27-.1-.11.1h.86l-.08-.05c.03-.08-.08-.09.05-.15l.06.2h.7c.29,0,.64.26,1.05.79.22.25.34.52.34.8v.04c.13-.06.5-.05.42-.28l.22.17-.46.14.04.02-.22.04.03.03-.03-.02v1.4c.1.28.71,0,.6.25-.19.12-.32.13-.55.18l.07.31-.12-.25v3.37c0,.34.15.51.46.51h1.36l-.06-.12.17.12h.31c0-.08-.03-.17-.18-.23l.23-.09c-.12-.11-.27-.25-.37-.25.61-.24.35.65,1.12.37l-.12-.16.34.06c-.09-.08-.17-.19-.3-.25l-.11-.04-.23.02.05.12-.15-.13c.11-.07.22-.04.34,0l.11.04.24.04c.05-.16.23-.21.44-.23v-6.12c0-1.06-.62-1.94-1.85-2.64v-.13c.61-.5.96-.94,1.05-1.33.03-1.37.08-2.37.14-3.04.03-.51.11-.77.25-.8.22-.06.48-.1.8-.12.27-.08.4-.16.4-.25v-2.39c0-.12-.18-.2-.54-.25Zm-16.14,1.46l-.32-.09.32.09Zm-1.59.79l-.12-.38c.26-.17.23.12.59-.04l-.12.16c.31-.06.53.12.51.19-.33.08-.51-.14-.86.07Zm.94-.77l-.36.09v-.22c.07.07.22.14.36.13l.14-.04-.14.04Zm1.06,1.07c-.51-.02-.13-.53-.65-.33l-.17-.1h-.02s-.1-.02-.1-.02h.1s.02.02.02.02c.11-.02.24-.12.42-.12l.06.21c.13-.06-.02-.19.32-.18.23.22-.47.37.03.52Zm.46,7.7c-.23,0-.22.1-.28-.11.01.1.3-.01.28.11Zm-1.14-.38c.17,0,.12.16.1.23l-.33-.05v.02s.08.16.08.16c-.33-.08-.04-.09-.07-.16l-.02-.03h0s-.08-.04-.08-.04c.12-.06.5.06.31-.13Zm-.92,3.11l.52.21-.64-.11.12-.11Zm.31,2.25l-.05.15-.31-.09c.27-.03-.05-.12.28-.2l-.05-.17c.14.08.33.19.63.23-.16.04-.35.16-.49.08Zm1.79-1.96l-.16.04c-.44-.24-1.13.04-1.45-.32l.51.06v-.05s.5.06.78.13v-.17s.36.11.36.11c-.23.05-.12.11-.04.2Zm.17-11.33c.12.16-.28.25-.26.35-.36-.16-.01-.1-.18-.38.04.07.32.09.44.03Zm-.27.57c-.11-.06-.41,0-.29-.17l.33.14-.03.03Zm.06-.09h-.09s.09,0,.09,0l.09-.12.18.1-.27.02Zm.4-.48l.2-.02-.21.15v-.12Zm.1,12.16c.32.14.03-.25.28.07l-.28-.07Zm1.14-5.54l-.24-.05.1-.03-.05-.12h.24s-.04.2-.04.2Zm.18-.21l-.12-.11.22.17-.11-.06Zm1.38.67c-1.4-.17.4-.74-.38-.98l.74-.02c-.14.4-.49.83-.36,1Zm.4-.2l.03-.03.25.15-.03.03-.25-.15Zm.21,1.16l.23-.02-.05-.14.09.14h-.04s.06.19.06.19l-.29-.17Zm.39-1l.13.21-.13-.21Zm.47-7.97l.8.02-.12-.11c.58.18.84.54,1.24.88-.24.05-.32.24-.74.19-.2-.2.33-.1.13-.29-.26.13-.13-.16-.17-.23-.14.02-.23.06-.26.13l-.41-.22h.13c-.12-.17-.42-.29-.6-.38Zm1.14,10.4c.21.03.3.21.48.04l-.24.23c.02-.13-.06-.17-.18-.1-.25-.09.16-.05-.06-.17Zm-.2-.9l-.13-.21c.08.09.28.07.37-.06.32.14-.06.11,0,.27l-.29-.17.05.17Zm-.32-.68c.11-.26-.25-.14-.37-.31.29-.11.4.18.51.29.25.1.19-.12.26-.08l.06.26c-.18-.06-.39-.18-.46-.17Zm.07.58l-.04.2.04-.2Zm.2-1.15l.02-.13.18.06-.2.07Zm-.59-7.61l-.1.04-.04-.08-.07-.15.07.15.13.04c.14-.04.25.04.43.1-.11-.06-.28-.07-.43-.1Zm.42,6.27l.21-.42c.13.11.76.15.41.45-.51.16-.64.01-.78-.16l-.38-.32c.21.07.29.2.38.32l.16.12Zm-.87,0l.25.15-.03.03-.26-.14.03-.03Zm-.15,1.54v-.17s.27.14.27.14l-.27.03Zm.25-1.04l-.05-.17h.37c-.13,0-.01.16.07.25l-.38-.09Zm.03,6.27l.05-.11h.17s-.22.11-.22.11Zm.42-.35c.05-.11-.32-.13-.04-.29-.18-.1-.25.13-.34.21-.27-.24-.12-.33-.17-.5l.12-.12.03.2c.12-.03.25-.03.28-.07l-.03-.06.03.06c.11.2.56.31.13.56Zm.12-2.48h.41s-.41,0-.41,0Zm.4-.61l-.06-.14-.17-.08c-.05-.12.37-.29.49-.17v.17c-.09-.04-.23-.08-.35-.01l.04.09.06.14Zm.25,5.39l-.11-.06.26-.08.03-.03-.03.03-.15.15Zm.8.88l-.15.09.04.03-.04-.02h0c-.09-.08-.36-.02-.5-.14l.24-.18c-.04.43.6-.07.4.22Zm.35-16.87l.1.18c-.14.02-.3.16-.39.02l.29-.2Zm.16.62l-.04-.14-.14-.13c.12.01.14.07.14.13.15.09.21-.08.33.16-.24.1-.47-.02-.67,0l.38-.02Zm-.01,9.19l-.25-.09.06.16-.17-.22c.17,0,.08-.14.08-.18l.39.12c-.09.08-.19.07-.11.21Zm.49-7.3c-.8.67-.62-.71-.8-.89l1,.56-.2.32Zm.12,7.28l.02-.22h-.04s-.07-.01-.07-.01v.05s-.01-.05-.01-.05h.01v-.07s.07.07.07.07h.04c.11.03.27-.03.27.13-.16-.17-.09.09-.29.11Zm.33-3.46l-.12-.06.08-.18c.26.07.02.15.03.24Zm2.19,3.13c-.12-.16-.37.02-.49-.04-.08-.14.68-.02.49.04Zm2.48-2.8l-.11-.06-.11-.11.22.17Zm-.25-.05l-.04.21-.24-.05.1-.04-.05-.12h.24Zm-.13-2.2l-.26-.19.26.19Zm-.6-.48c-.16.04.1.29-.21.2.12-.11.24-.22-.04-.29l.25.1Zm-1.08,2.6l.09-.09.32.09h-.41Zm.47-2c-.07.23.33.18.25.36.03-.03-.42-.1-.25-.36Zm.14-3.63c.16-.04.08.09.12.16l-.12-.16Zm.34,6.7l-.22-.12.38.08-.16.04Zm.18-2.75l-.12-.11.34-.04-.04-.02.22.08c-.21.29-.15-.09-.4.08Zm.4,8.59c.35.11-.03.35.45.35l-.79.18c.07-.23.2-.29.34-.53Zm-.18,3.46l.09.19-.23-.22-.18.17c-.21-.03.14-.23,0-.37.21.02.09.23.35.16l-.08-.09c.4-.31.43.2.8.24-.19.12-.5-.19-.75-.07Zm.73-3.42h.47s-.36.11-.36.11l-.12-.11Zm.6,3.28l-.05.11c-.22.1-.42-.15-.47-.27l.34.02v.17s.19-.02.19-.02Zm.92-1.33l-.39-.13.02-.14-.11-.05.11.05c.23.04.49-.26.62.05-.16.04-.44.02-.25.22Zm.29-.69l.14-.19c.27-.03.12.16.27.24l-.41-.05Zm.38-2.18c-.19-.2-.48-.05-.34-.28.18.06.45.07.34.28Zm-.72-3.49l.35.11-.26.08c-.14-.03-.12-.16-.09-.19Zm-.21.24l-.26.12-.04-.07.3-.06Zm-.95,3.2c.35.26.82.38.99.75.01-.23.33-.06.58-.11l.23-.18-.23.18-.46.36.21.24c-.5.02-1.28-.4-1.35-.61.3-.26-.47-.61.04-.63Zm.27-4.32h-.24c-.36.11-.13.34.03.51-.33.08-.41-.05-.6-.21.17,0,.4-.04.39-.14-.32-.14-.44.02-.6-.21l.4-.27.04-.07.04.02-.07.05c-.04.18.43.2.62.31Zm-.15-4.34h0s-.02,0-.02,0h-.05s.05,0,.05,0h.02s-.1-.29-.1-.29c.18.06.34.33.34.33l-.25-.05Zm.91-2.92c.02-.13-.16-.18-.32-.14l.13.21-.32-.36-.19.17c-.17-.06-.02-.15-.03-.25l.12.11.07-.23c.18.11.52.34.84.16l.06.21-.18-.11-.18.22Zm.34.29l-.18-.11.08-.13c.16-.04.33.19.1.24Zm.45-1.65l-.08.18-.25-.1.33-.08Zm-.12,1.56c-.5-.2.29-.15.02-.35.26.14.03.24-.02.35Z"/>
            <path class="cls-1" d="m57.79,53.07h-3.12c-.1.11-.2.27-.4.29l-.33-.24.06.22-.69-.03.1-.23h-3.68c.08.16-.15.44.33.41.13,0,.01-.17.05-.1.24.05,0,.37.37.26-.04.2-.52.25-.76.2.11-.48-.43.17-.7-.13l.47-.05-.08-.14c-.39.16-.55-.14-.57-.38-.19.07-.31.19-.31.44v8.41c.41-.11.24.32.76.21.08-.18-.25-.14-.21-.35.33-.03-.08.18.18.15l.26-.13-.07-.04.39.18c-.41-.06-.45.24-.71.32l-.29-.16c-.03.16-.17.16-.32.15v.38l.25.06v-.05s.18.11.18.11c-.1.03-.17,0-.3,0l.08.14h-.21v.33l.02.1h-.02s0,1.15,0,1.15c.23.09.42.2.56.29-.13,0-.28-.03-.38-.04l.09.19h-.27v4.12h.09c.06-.07-.07-.32.22-.15,0,.11-.11.15-.22.15h-.09v1.38l.38.39h2.54l-.16-.35.14.1c-.14-.31.2-.22.37-.13l-.09.17c.12.06.45.22.29-.04l.09.1c.04-.06.07-.14.07-.25v-2.23l-.35-.16c.19-.07.31.08.35.16v-.96c-.13.02-.27.05-.37.07.17-.09.28-.12.37-.11v-1.18c-.12.01-.22.03-.27.1-.13-.21.13-.33.18-.49-.32-.09-.33.13-.45-.08l.27.02-.05-.12h.31v-.15h-.27l.27-.06v-2.66l-.19.06c-.35-.11.2-.34-.19-.47l.38-.06v-5.69l.21-.18h.03c.04-.2-.26-.13-.36-.19-.05.15.14.04.16.18l-.32-.14c.19-.12.65-.31.91-.38-.09.13.02.14.22.13l-.12-.16c.34-.03.34.29.27.51-.15-.17-.52-.1-.71.05h4.99l-.1-.19c.23,0,.25.09.14.19h.45l.26-.34v-2.64c0-.17-.13-.25-.39-.25Zm-8.73,2.97l-.25-.05.28.02-.03.03Zm-.22,11.16l-.07-.04c-.11-.11.03-.03-.02-.15.18.06.08.09.09.19Zm3.14.33v.22s0-.22,0-.22Zm-.41-14.04c-.25-.05-.22-.13-.24-.27.17,0,.27.24.24.27Zm-.48,0c0,.32.47.17.72.28l-.33.08s-.54-.17-.38-.36Zm-.46,5.23l-.18-.11.2-.07-.02.17.12.08.34.07h.04s0,.1,0,.1v-.08s-.05-.01-.05-.01c-.14.02-.25-.01-.34-.07l-.12-.08Zm.53,6.54l-.46-.13.46.13Zm-.57,4.11l-.27.02c.16-.13.13-.11.27-.02Zm.48-12.17l.25.1.05-.2.11.06-.21.29-.2-.25Zm.33-.4c.14.04.33.19.16.23l-.16-.23Zm-.06-.49l-.12.11c.02.19.31,0,.39.09-.28-.02-.4.36-.63.13.66.15-.25-.37.37-.33Zm-.95-2.9l.33-.13-.15-.13.33.14c-.02.12-.37.06-.5.12Zm.17,4.19l-.22.15-.16-.23.38.09Zm-1.42,5.3v-.07s-.07-.29-.07-.29c.17,0,.34.24.46.28h.01s.1-.04.1-.04l-.1.05h-.01c-.09-.02-.19-.13-.3-.11l-.1.11v.07Zm.33,3.43l-.2-.25c.21.08.12.16.2.25Zm.08,1.79l-.25-.15.03-.03.25.15-.03.03Zm-.02-5.13h.34c-.14-.02-.26.14-.34,0Zm.32.41l-.2-.25c.3-.06.17.32.2.25Zm-.04,2.62c.16-.04.28-.19.31.07l-.31-.07-.18-.04.18.04Zm-.05.59v-.1s.25.2.25.2l-.25-.1v.1s0-.1,0-.1Zm.2,1.31l.05-.15.18.11c-.06.05-.19.16-.23.05Zm.18,2.68l-.11-.06.28.07h-.17Zm.17-.27l-.28-.12h.4s-.12.12-.12.12Zm.8-.08c-.23.05-.58-.06-.79-.14l.2-.12-.06-.07.06.07c.22.19,1.01.02.59.26Zm.6-3.77l-.12.11c-.21-.08-.66.15-.74.01.48.11.44-.38.87-.12Zm.21-5.45c-.17-.28-.58-.12-.84-.05.07-.59.99-.09,1.04-.29.15.18-.29.1-.2.34Zm.12-.88h-.47s-.12-.05-.12-.05h-.02s0,0,0,0c-.3-.11-.45-.14-.5-.33.32-.03.38.17.5.33h.03c.19-.1.51-.13.59.06Zm-.03-5.81l-.15-.08.23-.05-.08.13Zm0-.91c-.26.12.05.12-.04.25-.06-.17-.34-.29-.08-.41-.01.17.42.06.27.25l-.15-.09Zm.16,1.09c.12-.16.22-.14.28-.29l.17.28c-.13-.21-.23.04-.44.01Zm.22-1.1l.21-.24.03.29-.25-.05Zm4.09.21l-.12.2c-.33-.09.1-.08.12-.2Zm.49.96l.19.15-.27.13c-.08.22.67.43.09.55-.3-.17-.74.21-1.05-.05h.31s0-.22,0-.22l-.23.09c.18-.21.72-.04.8-.32.13-.11-.2-.26.14-.33Zm-2.48-.24l.29.12-.32-.09.03-.03Zm.29,1.72l-.52-.08-.02.18c-.1-.03-.32.08-.47.04l-.04.03-.03-.09-.06-.05.03-.02.03.08.06.06c.18-.24.5-.09.56-.44.1.01.22.12.35.11l.02-.12.26.14-.19.17Zm.97-2.4c.14,0,.38,0,.37.17-.22-.08-.35.03-.37-.17Zm2.16,2.22c-.12-.06-.32-.06-.47-.11-.17.03-.09.15-.04.21h.03s-.03,0-.03,0c-.25-.25-.9-.1-1.31-.11l-.03.08c-.59-.07.24-.32.06-.37.36.12,1.02.03,1.04-.04.23.02.54.16.74.36l.11.13-.11-.13Zm-.61-.74l.22.03-.06.1.03-.07-.18-.06Zm.11-1.26c-.26-.01-.13-.18-.2-.22h0s-.16.01-.16.01v.1c-.08.18-.17-.06-.37.06l.03-.34c.15.07.32.12.5.18h0c.3.09.62.15.86.14l-.66.08Z"/>
            <path class="cls-1" d="m71.19,53.1c-.34.39-.72.76-1.04.81v.29c-.17-.04-.35.25-.38.06l-.09.15v-.25s.25-.07.25-.07c.18-.37.42-.36.36-.71.19-.02.35-.15.51-.31h-2.72c-.26,0-.44.17-.54.51l-2.11,7.14c-.02.1-.09.15-.21.15l-.05-.03-1.98-5.93h-.37c.1-.13.26-.06.37-.02l-.32-.95c-.27-.03-.62-.23-.7-.05l-.14-.09c.14-.24.45.08.49-.17h.25c-.14-.37-.31-.56-.51-.56h-3.28c-.09,0-.14.13-.14.4v.23l.21.03v-.05c.38.14-.12.26.24.42l-.14-.04v.22s-.12-.02-.12-.02l.54,1.54.27.04-.09.08-.17-.1,2.3,6.57c.18.03.21-.24.34-.08-.05.14-.2.13-.3.18l1.09,3.12c.13.03.25.07.45-.25.65.05-.05.42.51.61v-.05s.02.19.02.19c-.09-.19-.57-.19-.57.03l.17.06-.22.15.09-.08c-.07-.13-.21-.17-.35-.19.03.15.08.31.08.45,0,.87-.35,1.3-1.05,1.3h-2.64v2.91c0,.1.26.22.79.38h1.21s-.28-.09-.28-.09l.28.09c.2,0,.39-.02.58-.03l-.13-.17-.16.09c-.16-.1-.37-.17-.57-.22v.02s-.21-.08-.21-.08l.21.06-.03-.32-.5.11c.29-.15.78-.36,1.04-.15-.03.07-.32.22-.1.35l.19-.11c.28.16.3.22.38.41,1.56-.14,2.79-.7,3.68-1.7l.11-.14h0c.49-.59.89-1.31,1.16-2.19l.89-2.85-.1.02c-.12-.16-.15-.35-.4-.49.17-.22.42-.4.71-.55l.11.03.36-1.16-.17-.05-.05.2c-.48-.11.21-.61-.04-.76.08.14.19.25.39.19v-.05s.01,0,.01,0l.11-.35c-.12-.02-.23-.05-.3-.09l.4-.2.81-2.61-.21.06c-.18-.05-.44-.02-.5-.24.62.08.1-.47.73-.36h.14s.58-1.84.58-1.84h-.09s.1-.02.1-.02l.61-1.97c.1-.27.15-.48.15-.61,0-.16-.08-.24-.21-.27Zm-11.79.97l.16-.14.17.06-.33.08Zm3.84,3.4c-.12.11.16.23-.06.32l-.44-.09c.15-.13.49-.12.5-.24Zm0,4.1h-.3.3Zm-.41.21l-.16.14-.03-.03h0s-.02-.03-.02-.03l-.1-.18.1.18.03.03.18-.11Zm-.22-6.31c-.04-.12.16-.14.22-.15l-.02.12-.2.02Zm0-.54l.31.32-.4-.19.09-.13Zm.1,1.41l-.03.03-.23-.05.27.02Zm-2.56-.15c.01-.22.13-.06.22-.14,0-.28-.29.04-.41-.12.23,0,.44-.28.52-.14.5-.02.24.42.49.57-.34.2-.4-.34-.81-.18Zm1.3.38l.19.21c-.12.16-.5.02-.6-.05l.41-.16Zm.22,2.45l.08-.18c.29-.06.13.21.3.26-.22.1-.53-.16-.57.05l-.25-.14.44.02Zm-.28,1.63l-.04-.12.11.06.18-.16-.25.22Zm.5-.02l.03-.07-.17-.06c.12-.16.27.08.38.14h-.23Zm.47-5.44c-.08.18-.2.07-.4.14.25.05-.09-.23.11-.3.11.06.4-.04.29.17Zm.07,7.82c-.08.36.25.29.25.63-.19-.08-.35-.42-.25-.63Zm.38,1.22h-.04l-.1.32-.05-.33h.15s.02-.05.02-.05l.02.06.15.15.06-.19.03.29v.12s0-.12,0-.12c-.05-.09-.19-.11-.24-.24Zm.58-.18c-.15-.15-.18-.56-.4-.35.06.16.11.05.18.16l-.24.03c-.07-.12-.17-.25-.16-.33l.14.15c.16.03.16-.37.12-.34.12,0,.46.46.36.68Zm5.99-4.45c-.14.02.03.19-.19.12.21.02-.06-.21.19-.12Zm-1.51-5.58c.21.03.08-.13.11-.16.05.12.4,0,.63.07-.08.05-.23.15-.08.23h.07c.06.3-.54.01-.8-.08l.06-.06Zm.01,3.37l-.04.15-.42-.08.47-.07Zm-2.01,3.65l.51.22-.37.14c.05-.15-.12-.16-.25-.2l.11-.16Zm-.18,3.39h.09c.09-.04.28.04.26-.08-.04-.07-.04-.16-.18-.13l-.03.06v-.05s.03,0,.03,0l.05-.08c.23.12.29.12.41.27h-.13c-.08,0-.26.01-.41.02l-.04.02-.05-.02c-.14,0-.24-.05-.18-.2.35-.01.03.12.18.2Zm-.15-3.45v.11s-.01.06-.01.06v-.06s-.21-.11-.21-.11h.23Zm-1.58,1.91c-.02-.14.15-.18.25-.12l-.25.12Zm-1.72,6.29l.02.14-.15-.08.13-.06Zm-1.32.17l-.21-.08.22-.14-.34-.02c.13-.06.27-.07.26-.17l-.42-.21.05.16-.33-.08h-.01s-.01,0-.01,0l-.4-.09.03-.08c.15-.08.29.08.37.17h.02c.21-.21.42-.09.79-.1.14.09-.06.38.25.42l-.25.22Zm.17-1.05l.02.15c-.26.07-.53-.23-.63.08l-.09-.24c.1.01.64.02.49-.16-.15-.13-.51-.03-.4-.24.2.26.61.05.79.11.05.12-.14-.08-.2.07.13.31.72.06.8-.11.01.09-.34.3.03.29-.41-.01-.39.18-.81.07Zm.61,1.1l-.03.03-.19-.15c.42-.17.2.2.45.35l-.23-.22Zm.49.39l-.11.18c-.16-.13-.02-.15.11-.18l.13-.04-.13.04Zm.21-.17l-.29-.17.03-.03.29.16-.03.03Zm-.24-1.1h.31s-.31,0-.31,0Zm.71,2.45l-.16-.18.22.08-.06.1Zm.24-1.16l.08-.18.08.09-.16.08Zm.04-.57l-.13-.26.39.19-.26.07Zm.61-.81l.03-.12h0c.02-.12,0-.28-.02-.33-.07-.04-.03.17-.12.02.06-.26-.2-.38-.14-.67h0s0,0,0,0v-.08s.14.07.14.07h.06s-.06,0-.06,0h-.14s0,.02,0,.02l.28.57c.08-.19.22.08.34.1l-.09.23c.21-.06.22.49.25.7-.18-.24-.26-.47-.5-.61l-.03.12Zm.47,1.4c-.06-.13-.19-.11-.27-.08l-.07.06.07-.06c0-.1-.07-.27.27-.2.12.11-.15.14,0,.27Zm.03.56c.04-.25-.29-.17-.47-.23l.67-.06-.21.29Zm-.46-9.3c.02-.13.25-.08.3-.28-.02.17.11.11.27.07l-.08.13c.2-.06.45-.03.53-.12l.03-.08-.03.08c.01.08.06.17-.17.16,0,0-.52-.04-.84.03Zm1.48,6.8l-.15-.13h.07c.03-.08-.02-.15-.19-.16l.3-.05c.12.16-.25.17-.03.35Zm-.18-3.63l.16.13s-.33-.14-.17-.27l.29.12-.27.03Zm-.31-2.07c.78.41.72-.35,1.3-.23.09.31-.02.58-.06.79-.25.03-.83-.09-1.23-.55Zm.71,5.55c.05-.11-.17-.28,0-.32l.43.2c.02.15-.25.17-.43.12Zm.46.13l.12-.16c.3-.06.16.23.23.22l-.35-.06Zm.36-1.19l-.04-.02-.19-.04c.14-.13.14-.01.19.04l.04.02.11-.04v-.05s.05.17.05.17l-.16-.08Zm.73-6.29h.29s.04.28.04.28c-.08-.09-.13-.3-.33-.28Zm.25-.94v-.22c.29-.1.21.03.51.07l-.51.15Zm.54.14v-.18s.15.09.15.09l-.15.09Zm.47-4.28h-.28c.04-.2.12-.06.28,0Zm-.1,1.68c-.16-.06.05-.1,0-.22.23.32.2-.19.5.05-.01.39-.33-.12-.51.18Zm.11,3.43c.16,0,.29,0,.42-.02-.16,0-.36.18-.42.02Zm.44-5.32c.83-.43.15.45.66.45l-.6.09.09-.08c-.2-.08-.42-.3-.15-.45Zm.28,2.34l.21-.15c-.19.07-.1-.23-.28-.06.13-.02.13-.29-.04-.34l.3.21.19-.12.29.39c-.34,0-.45.2-.67.08Z"/>
            <path class="cls-1" d="m83.67,53.07h-1.51c.17.1.26.11.28.25l-.17-.1c.02.19-.29.1-.25.34l.26.02c.23.22-.45.05-.13.29-.28.1-.64-.11-.83-.09.04-.25.39-.04.55-.08-.18-.15.19-.07.04-.25l-.22.05c.01-.17-.47-.05-.16-.23l.32-.08c-.35-.16-.65.07-.96-.07l.05-.05h-5l.04.11h-.88c.08.37-.59-.09-.54.29-.31-.17-.04-.22-.06-.41h-.23v.07s0-.07,0-.07h-1.12l.11.27-.21-.02.07-.23-.37.02.04-.04h-.58c-.18,0-.26.13-.26.38v2.52c0,.31.13.46.38.46h3.58l.2.2v2.46c.23.08.57.25.69.35-.33.04-.13.29-.53.34v-.18s-.15.04-.15.04v4.88h.27s-.25.16-.25.16l.47.26v-.1s.32.18.32.18l-.23.1c.13-.01.29.16.41,0,.09.19,0,.32-.23.59l-.03-.24c-.13.02-.12-.38-.39-.12.35.06.15.35,0,.49-.1-.32-.21-.23-.35-.1v.26h.17s0,.18,0,.18c.69.38-.04-.29.59-.4.19.15-.12.39.16.45.29.16.4-.32.6-.08-.32.35-1.09.16-1.49.38l.06.05h-.08v3.89l.43.36v-.16c.41.42,1.13-.1,1.64-.17.19-.02-.02.35.25.2l-.06.16h.98l.47-.39v-2.64c-.07,0-.07-.04-.21-.09l.21-.02v-.08c-.25-.1-.3-.28-.79-.21v.22c.06-.28-1.05,0-.64-.49.27-.03.9-.09,1.18-.29-.03.11.13.1.26.11v-1.13c-.45.06-.41-.3-.07-.31l.07.1v-5.1h0s0,0,0,0v-2.19c-.19-.03-.04.23-.15.13-.02-.14-.03-.24-.23-.3.15-.03.27-.02.38,0v-1.56l.18-.2h3.72c.18,0,.26-.15.26-.46v-.62l-.11-.03c0-.05-.3-.09-.22-.22l.34.17v-1.82c0-.25-.08-.38-.26-.38Zm-11.57.29l-.02-.15c.2.2.35.06.59.05l.09.18c-.04-.34-.44-.02-.66-.09Zm.29,2.72l.07-.28h.34c-.08.14-.2.26-.4.28Zm.62-1.77l.15-.14.18.1-.33.04Zm.28-.31c-.13,0-.19.11-.27.14-.06-.22-.07-.26-.32-.35l.15-.19c.41.03.26.31.44.41l.13.04-.13-.04Zm.41.15c-.07-.04-.13-.2.04-.2l.07.26-.11-.06Zm.24-.76l-.28-.07c.25.09.25-.13.35-.17l-.07.23Zm2.17,7.04l.09-.13.14.08-.23.05Zm.55.3l-.28-.06.29-.11c-.06.06.18.1-.01.17Zm-.08,9.04l.15.08-.44.03c.08-.13,0-.27-.08-.36l.59-.12c.16.18-.16.31-.22.37Zm1.97-.47h-.02s-.09-.02-.09-.02l.09.02h.02s0,0,0,0l.24.04c-.24-.05.02.19-.35.16l.11-.2Zm-2.06-10.15c.04.07.49-.19.41.05-.1.04-.3.06-.41-.05Zm.45-3.13c-.3.01-.24.23-.52.16.11-.16.09-.14.23-.05.07-.23-.37-.25-.6-.15v.09c-.17-.15-.48.09-.83-.02l.4.22h-.1s-.51-.29-.51-.29c.15-.63.95.25,1.28-.33h-.41c.05-.15.38-.19.35-.16.29.16-.13.33.31.3.02-.12.4-.1.16-.32.38.03.21.35.24.54Zm.01,5.37c.13-.02,0-.22.24-.18-.06.06-.03.3-.24.18Zm.26-6.39l.05-.15.17.23-.21-.07Zm.18-1.2c.45-.16-.15.19.22.12l-.16.04-.06-.16Zm.18,4.12c.14-.19.5.02.45.12l-.45-.12Zm.23-1.68c.1.01.29-.16.38.03-.16.05-.41,0-.38-.03Zm-.83,11.93l.32.13h-.41l.08-.13Zm.13,1.23h.13s-.08.17-.08.17l-.05-.17Zm.72.59c-.1.16-.23.03-.38-.02h-.09s-.1.02-.1.02v.1s-.04-.17-.04-.17l.14.05h.09c.19-.04.38-.22.38-.25.21.08-.01.17,0,.27Zm-.1-6.54c.23-.05.3.21.41,0l.06.21-.21-.02-.26-.19Zm.64,6.25c.15.08-.18.22-.11.16l-.18-.1.29-.06Zm-.36-5.08c.12-.29.16.12.36-.08.15.03-.24.19-.36.08Zm.09-3.19l.1-.04-.22-.12c.13-.02.36-.11.37-.02h-.07s.13.26.13.26c-.12-.11-.29.11-.32-.08Zm.5,3.67l.08-.13.13.15-.21-.02Zm.42-.14l-.29-.5c.42-.14.3.33.34.39l-.05.11Zm.03-.82l-.19-.15-.05-.11.05.11c.13.06.42,0,.19.15Zm.37-4.98h-.07s.05-.19.05-.19l.03.19Zm.14-2.39c-.21-.27-.36.33-.65.32v-.29c.19-.29.71-.18.86-.57.1.26-.21.2-.21.53Zm1.81-1.36c-.57.26-.87-.25-1.63-.28-.27-.09-.14.2-.29.19-.24-.29.34-.23.32-.39-.41-.38-1.02-.74-1.5-.47-.39-.1-.07-.18-.19-.4.47-.07.39.45.85.31l-.22-.2c.36-.13.87-.06,1.27-.03-.55,1.04,1.19.41.96,1.21l.49-.25-.06.32Zm-.27-1.95l-.07-.04-.08-.14.15.18Zm-.08.4l-.11-.11.26-.03c-.32.08.18.1-.15.14Zm1.03.88c-.24-.09.14-.51.43-.29.13.26-.32.08-.43.29Zm1.41-1.28c-.04-.07-.1-.29-.32-.19.11-.21.45-.05.39,0-.16,0-.05.1-.08.18Z"/>
            <path class="cls-1" d="m93.15,59.79c-.47-.14-.91-.22-1.3-.25-.62-.05-1.54-.09-2.78-.12l-.2-.14v-3.67c-.14.03-.26.04-.29-.08l.29-.07v-.48h-.14c.17.06.1-.2-.02-.31.13.02.13.08.16.13v-1.35l-.16-.13h-.03s.01.05.01.05c-.45.11-.66.19-.86.07l-.1-.07.1.07c.12,0,.2-.36.39-.09l.09-.26h-.02s-2.66,0-2.66,0l-.39.38v.9l.06-.04c-.1.21.27.23.26.13.04.07.3.37-.04.33.21-.11-.03-.15-.14-.2l-.13.2v3.84c.39-.1.88.16,1.27-.04l.1.36c-.44-.13-.88.04-1.3,0l.16.13c-.08-.09-.25-.09-.14-.21h-.09s0,1,0,1l.14-.15c-.01.13.33,0,.23.21l-.15-.07-.04.15h-.19s0,10.35,0,10.35c.37-.11.67-.24,1.11-.26-.27,0-.42-.26-.78-.18l.28-.13-.04-.05.07.04-.04.02c.21.25.73-.29,1.02-.22-.2.21.04.24.12.33l.43-.09c-.09.31.3.2.53.32-.15.14-.22.15-.25.36l-.22-.11c-.15.54-.47-.2-.66.33.09-.26-.44.04-.6-.13-.13.17-.4.24-.67.3l.2.05h5.96c1.27,0,2.3-.31,3.11-.91-.13-.03-.32-.04-.44-.01l.21-.16c-.2-.19-.45.17-.26-.13.07.2.35-.18.39.09h.03s.08-.2.08-.2c-.2.03-.46-.27-.54.04l.09-.26c.15-.1-.05-.11-.03-.2l.83.07c-.09.09-.2.21-.37.25l.25.31.26-.24c-.08-.06.06-.06-.08-.16h.22s.01-.02.01-.02c-.02-.09-.12-.15,0-.21l.12.07c.36-.45.65-.98.87-1.62.19-.55.29-1.3.29-2.25,0-.8-.06-1.38-.16-1.73-.54-2.06-1.69-3.33-3.44-3.82Zm1.4,2.89l-.02.25c-.14-.2-.36-.14-.59-.03l.08.04c-.51.18-.44.05-.92.2l-.04-.24c.33-.06.7-.31,1.11-.28-.09.26.26-.09.38.06Zm-.45-.45h.08s.04-.06.04-.06l-.11-.11.12.1h0s.01.05.01.05h-.05s-.08.02-.08.02l-.26.04c.05-.21.16-.07.26-.04Zm-1.33-1.77l-.13-.16.47.15-.06.06c.19.14.3-.07.46-.08-.22.11-.33.28-.68.23.15.11.41.23.69.32l.04-.03.05.06.17.05-.17-.05-.09-.03-.4.36c-.2-.14-.34,0-.56-.11.41-.02.14-.37.39-.34-.22-.11-.23-.16-.54-.18.09-.04.11-.34.36-.25Zm.16,2.67s-.09-.13-.3-.15l.33-.05-.04.2Zm-.59-.08v-.27c.18.14.11.11,0,.27Zm-.93-3.12c-.36.08-1.05.21-1.26-.03.43-.09,1.08-.07,1.26.03Zm-.83.33l-.39.06.39-.06Zm-.6.66c.43.13.54.01,1.01,0-.2.03-.41.36-.73.29.06.16.32.07.41.21-.18-.05-.65-.24-.64.02l-.11-.28c.13-.07-.02-.14.07-.23Zm-.5-.96l.16.17-.18-.05v-.12Zm-.24.93h-.24c-.02-.13.15-.09.24,0Zm-.63.19l.22-.06-.13.19c.16-.17.77,0,.67-.4l.1.18c-.34,0,.07.26-.27.22.11,0-.09.31.11.28l-.18-.05c.14-.15-.62-.16-.52-.37Zm-.65-5.91l.24.02c.05.17-.25-.06-.19.15-.15,0-.05-.12-.06-.17Zm-.28,1.69c.01.27.63-.25.7.14h-.24s.09.14.09.14c-.18-.09-.28.12-.34.18.11.06.49.07.25.08-.25-.08-.41.14-.5.23-.05-.29-.51,0-.43-.3.05-.28.33-.28.46-.47Zm.35,5.81h-.24s.08-.13.08-.13l.15.13Zm-.65-1.48c-.24.02-.41.19-.65.15.02-.25.45-.12.65-.15Zm.12.39l-.2.25v-.32s.2.08.2.08Zm-1.2-5.27l.1.23c-.25.08-.22-.22-.1-.23Zm.23-2.94h-.09c.08-.09.24-.09.37-.11l-.27.11Zm.19,6.92c-.32-.07-.28-.05-.29-.33.22.11.15.13.29.33Zm-.29,1.08v-.27c.16.05.15.17,0,.27Zm0,3.96l-.16.09-.09-.14.25.05Zm-.24-1.53l-.22.15-.09-.18.31.04Zm-.23-3.55v.22s0-.22,0-.22Zm.26,7.61c-.01-.09-.26.13-.32-.04.13-.07.23-.05.32.04Zm-.02-7.89c-.34.18-.47.02-.67,0,.13-.02.54-.21.67,0Zm-.62.61h-.17s.25-.14.25-.14l-.08.14Zm.08.26c-.02-.09,0-.22.12-.29l.15.07c-.15.1-.05.28-.27.22Zm.15,7.56c.12-.11.4-.05.39-.19l.4.17c-.24.28-.71-.12-.79.02Zm1.06-2.83c.08.09-.28-.02-.15-.13.19-.07.18.05.15.13Zm.13-3.47l.09-.08.21.07h-.3Zm1.15,4.08l-.34-.04.19.17-1.18-.22c-.34-.54.71-.04.77-.43.01.15.38,0,.66,0l-.09.5Zm.33-4.98l-.11.11h.17s-.12.07-.12.07c-.04-.07-.19-.2.07-.18Zm.2,3.7l-.27-.18c.13.15.26-.09.37-.08l-.1.26Zm.26-2.05h2.11c.62,0,1.11.39,1.49,1.13l.25.02c-.29.07.02.32.35.27.09-.26.25.08.38-.16l.19.32c-.15.05-.68-.09-1.03.03v.06s.26-.04.26-.04c-.12.07-.3.02-.18.17h-.06c.02.13.06.26.06.43,0,.5-.08.9-.25,1.18-.43.72-.83,1.08-1.2,1.08h-2.37v-4.49Zm3.83,5.23l-.13.24-.22-.11c.04-.2.37-.03.35-.13Zm-3.58-.17l.15-.2.09.09-.24.11Zm.6,2.16h-.3s.37-.06.37-.06l-.07.06Zm-.07-1.08c.06-.06.19-.17.01-.18.08-.18.44-.02.62-.01-.03-.2-.21-.03-.06-.21.22.13.52.24.44.47-.2-.15-.63-.03-1.01-.06Zm.94-1.06c-.33-.14-.18.22-.28.25l-.11-.33c.03-.07.29-.02.25-.17h-.07s.07,0,.07,0h0s.28.02.28.02c-.16.14.22.12.21.3-.17.04-.33.14-.35-.06Zm.27,2.41c.3-.04.12-.44.47-.23-.3.04-.04.25-.47.23Zm2.56-.63c-.17,0-.52-.05-.62-.23l-.03.2c-.44-.18-.8.13-1.16-.01.43-.1.87-.13,1.31-.35.24.04.12.33.41.21-.04-.07-.03-.14.1-.21.02.15.14.25,0,.4Zm.08-4.77l.19-.03c.15-.03.2-.1.28-.22.14.03.23.16.36.14l-.17-.17.28.05.04-.16c.19-.08.23-.06.29.11l-.36.08c.06.16.47-.03.51.16-.01.13-.23.06-.28,0,0,.18-.59,0-.96,0l-.19.03Zm.72.63l-.32.1.08-.14.24.04Zm.14.6c-.05-.12-.31-.25-.5-.12.34-.23.62-.4,1.01-.06l-.25.14.15-.15c-.16.05-.49-.07-.42.19Zm.67.34c-.17,0-.05.1-.14.19-.13-.15-.24-.21-.37-.19.09-.08.32-.1.23-.23.2-.03.44.18.28.23Zm-.11-4.81l.14-.15c.07-.01-.1.21.18.22l-.32-.07Zm.58,4.17l-.3-.15.33.12-.03.03Z"/>
            <path class="cls-1" d="m101.47,54.08l.03.15v-.65c0-.34-.14-.51-.41-.51h-2.77l-.13.13c-.1.38.46.15.77.34l-.02-.09c.2.14-.05.28.32.25.03-.2.33-.05.19-.3.43-.04-.17.17.14.25l.08-.13c.11.06.21.02.35.04l-.09-.13c.11.06.22.06.31.03v-.05s.31.07.31.07c-.05.11-.16.22-.11.34-.29-.15-.7-.14-1.02-.04,0,.05-.11.17.03.2-.34-.22-.53.08-.88.21-.03-.15-.15-.08-.32-.08-.06.24.14.25.16.52.16-.05.19-.08.31.03l-.39.11c.05-.21-.15-.23-.39-.21v4.86l.09-.07c.32.07-.13.02-.03.2l-.06-.03v4.23h.28s-.28,0-.28,0v3.95l.22-.11.1.18c.25.08.47-.07.65-.03l-.17.22c-.23-.12-.52-.06-.8,0v2.33c.23-.06.47-.13.68-.1.09.38-.32.2-.65.29.03.25.14.4.36.4h1.01l.04-.29.09.1c.24.05-.1-.14.05-.23.2.15.28.29.33.42h1.25l.21-.09.12-.12c.04-.08.08-.17.08-.3v-.24l-.24-.08.17-.17c-.24-.21-.11.12-.44,0,.14-.3.29-.25.51-.41v-1.86l-.19-.14.07-.14.12.02v-4.18l-.03-.02-.02-.15.06.09v-1.4h-.03s.03,0,.03,0v-2.63c-.19.02-.38.05-.68,0,.14-.28.4-.35.68-.35v-3.98l-.24.04c-.19-.09-.07-.21-.03-.32-.22-.11-.18.13-.28-.06.32.07.19-.25.17-.35l.35.04Zm-.93,3.42c-.12-.11-.26.04-.37-.02.09-.09.32-.1.37.02Zm.25,5.71c-.14-.03-.39.11-.46-.1h.68s-.3.06-.3.06l.08.04Zm-1.46,2.6l-.08.09-.19-.14.28.05Zm-.18-9.87c.01-.13.08-.14.16-.05v-.12s.22.24.22.24l-.38-.06Zm.01,7.72l.13-.02-.08.13-.05-.11Zm.15-6.57c-.07-.11-.04-.15.23-.25.12.06-.23.14-.23.25l.06.1-.06-.1Zm.37-.23c.24.03-.05.11.04.24l-.2.03c.01-.13.32-.1.15-.27Zm-.19,4.26l.25.08-.16.05-.09-.13Zm.14-.97l.06-.03-.06.03c0,.07.03.2-.14.18-.25-.12.01-.14.14-.18Zm.38,1.74l-.19.08-.18-.1.37.02Zm-.26-3.57l-.21-.1.21.1.28-.02c-.08.14-.18.09-.28.02Zm.03,5.21c-.06.23.3-.02.45.05-.09.09.53.09.25.26-.33.05-1.14.13-1.12,0,.21-.16.09-.26.42-.32Zm.26-.42c-.11,0-.3.02-.25-.15,0,.14.14.13.25.15l.08.02-.08-.02Zm.04-7.36c-.06.18-.22.06-.33.18l.23-.19-.18-.13-.14-.11.14.11c.14.02.34-.04.28.14Zm-.25-.83l-.53-.13.05.11-.25-.08c.21-.28.62-.08.72.1Zm-1.25,4.4l-.28-.05.28.05Zm-.26,4.35c.21.02.44,0,.41.21-.08-.04-.32-.07-.41-.21Zm.4-4.54l-.1-.18h.44s-.34.18-.34.18Zm.1.18c.23-.06.01.05.28.05-.04.15-.18-.04-.28-.05Zm.13,9.16c.24-.19.54-.04.67-.05-.1.04-.47.07-.67.05Zm1.25-1.65c-.03-.37-.75-.16-.89-.41l.14-.2c.17.22.83.12.91.33l-.22-.07c.08.09-.01.35.24.21l-.18.13Zm.47,2.52l-.19-.1c.09-.26.28,0,.38.02l-.19.08Zm.77-2.43c.17.17-.29.3-.46.3.07-.19.09-.04.25-.14l-.28-.14-.05.03h-.02s-.01.14-.01.14l-.15-.08.18-.06.05-.03c.15-.09.27-.2.3-.16l-.12.07.32.07Zm-.45-6.51c.1.18.3-.02.5.12-.37.04.14.2-.16.27l-.02-.32c-.13,0-.19.09-.2.2h0s0,.18,0,.18c-.12-.1-.25-.08-.4-.11l.4-.07h0s-.12-.28-.12-.28Zm.05-2.56c-.23.06-.2-.19-.42-.08.05.11,0,.17-.17.22.09-.09-.02-.32.17-.22l-.06-.16.45.05c.1.18.21.02.04.19Zm.29-2.44c-.44.18-.2.33-.38.47l-.34-.17.2-.03c.02-.08-.08-.21-.22-.11.19-.08.53-.22.74-.16Z"/>
          </g>
        </g>
        <path class="cls-3" d="m91.41,21.98c-1.74-5.46-1.18-2.08-2.67-6.26,0,3.08.4,4.18,2.67,6.26,0,.02,0,.04,0,0Z"/>
        <path d="m120.93,32.15c-.56-4.01-2.65-5.64-2.95-9.73.01,3.16-.87,4.16,2.95,9.73Z"/>
        <path class="cls-3" d="m95.16,17.02c4.92,4.84,2.18,4.41,5.14,6.56-.52-3.52-1.31-4.69-5.14-6.56-.01-.02-.03-.04,0,0Z"/>
        <path class="cls-3" d="m77.03,14.9c-1.67,5.5-2.37,3.66-2.83,6.55,2.35-2.21,2.9-3.3,2.83-6.55.01-.02.02-.04,0,0Z"/>
        <path class="cls-3" d="m57.49,25.7c-1.99-2.98-1.27-2.01-2.72-5.93-.29,2.75.1,3.78,2.72,5.93,0,.02.01.04,0,0Z"/>
        <path class="cls-3" d="m41.31,17.95c-3.42,3.45-1.09,1.8-3.64,4.59,2.33-1.04,3.01-1.78,3.64-4.59.01-.01.03-.02,0,0Z"/>
        <path class="cls-3" d="m87.27,22.37c.19,2.75-.52,1.88-.21,3.31.79-1.16.86-1.72.21-3.31,0-.01,0-.02,0,0Z"/>
        <path d="m83.6,17.43c-.56-4.01-2.65-5.64-2.95-9.73.01,3.16-.87,4.17,2.95,9.73Z"/>
        <path class="cls-3" d="m109.34,23.76c-.07,4.86.46,2.05.55,5.83.96-2.37.93-3.36-.55-5.83,0-.02,0-.04,0,0Z"/>
        <path class="cls-3" d="m126.02,50.2c-4.04.6-7.65,3.04-10.62,6.29,4.21-.82,8.15-2.94,10.62-6.29Z"/>
        <path class="cls-3" d="m87.52,34.89c-.44,5.93,1.87,11.83,5.52,17.08.18-6.24-1.56-12.51-5.52-17.08Z"/>
        <path class="cls-3" d="m39.04,34.59c-3.12,5.06-3.79,11.36-2.98,17.69,3.03-5.45,4.38-11.82,2.98-17.69Z"/>
        <path class="cls-3" d="m4.36,63.46c1.8,5.67,6.14,10.29,11.47,13.8-2.15-5.86-6.1-11.03-11.47-13.8Z"/>
        <path class="cls-3" d="m28.32,73.3c-5.9.74-11.24,4.16-15.66,8.76,6.15-1.05,11.96-3.99,15.66-8.76Z"/>
        <path class="cls-3" d="m109.34,73.22c.91,2.59,3.47,4.59,6.68,6.03-1.13-2.66-3.42-4.94-6.68-6.03Z"/>
        <path class="cls-3" d="m17.93,35.98c.3,3.77,2,7.22,4.3,10.12-.46-3.94-1.9-7.69-4.3-10.12Z"/>
        <path class="cls-3" d="m53.4,30.72c-2.85,5.22-3.2,11.55-2.06,17.83,2.75-5.61,3.76-12.03,2.06-17.83Z"/>
        <path class="cls-3" d="m4.36,39.2c1.8,5.67,6.14,10.29,11.47,13.8-2.15-5.86-6.1-11.03-11.47-13.8Z"/>
        <path class="cls-3" d="m127.72,63.67c-5.92.57-11.34,3.85-15.9,8.32,6.18-.88,12.07-3.65,15.9-8.32Z"/>
        <path class="cls-3" d="m82.99,73.22c4.18,4.23,10.14,6.38,16.48,7.09-4.58-4.24-10.44-7.06-16.48-7.09Z"/>
        <path class="cls-3" d="m80.05,41.94c-5.92.57-11.35,3.84-15.9,8.31,6.18-.87,12.07-3.65,15.9-8.31Z"/>
        <path class="cls-3" d="m57.35,81.19c-2.1-3.85-5.82-6.61-10.07-8.44,2.37,3.94,5.91,7.15,10.07,8.44Z"/>
        <path class="cls-3" d="m60.71,79.41c4.36-.5,8.31-2.92,11.6-6.18-4.54.72-8.84,2.8-11.6,6.18Z"/>
        <path class="cls-3" d="m107.33,50.85c-.07,4.86.46,2.05.55,5.83.96-2.37.93-3.36-.55-5.83,0-.02,0-.04,0,0Z"/>
        <path class="cls-3" d="m113.59,33.62c-4.95,3.29-8.2,8.74-10.11,14.83,5.04-3.69,8.92-8.91,10.11-14.83Z"/>
        <path class="cls-3" d="m73.33,29.59c-.44,5.93,1.88,11.83,5.51,17.08.18-6.24-1.56-12.51-5.51-17.08Z"/>
        <path class="cls-3" d="m4.96,51.85c4.2,4.21,10.18,6.31,16.53,6.98-4.61-4.21-10.49-6.99-16.53-6.98Z"/>
        <path class="cls-3" d="m30.69,24.05c1.74-5.46,1.18-2.09,2.67-6.26,0,3.08-.4,4.18-2.67,6.26,0,.02-.01.04,0,0Z"/>
        <path d="m2.21,30.69c.74,3.99-.72,6.19.29,10.16-.99-3-2.15-3.67-.29-10.16Z"/>
        <path class="cls-3" d="m26.95,19.09c-4.92,4.84-2.18,4.41-5.14,6.55.52-3.52,1.31-4.69,5.14-6.55.01-.02.03-.05,0,0Z"/>
        <path class="cls-3" d="m50.18,23.54c1.66,5.5,2.37,3.66,2.83,6.55-2.35-2.2-2.89-3.3-2.82-6.55-.01-.02-.03-.04,0,0Z"/>
        <path class="cls-3" d="m63.75,33.68c1.99-2.98,1.27-2.02,2.72-5.94.29,2.75-.1,3.78-2.72,5.93,0,.02-.01.04,0,0Z"/>
        <path class="cls-3" d="m80.79,20.02c3.42,3.45,1.09,1.8,3.64,4.59-2.33-1.04-3-1.78-3.64-4.59-.01-.01-.03-.02,0,0Z"/>
        <path class="cls-3" d="m38.58,30.01c-.18,2.75.52,1.88.21,3.31-.79-1.17-.86-1.73-.21-3.31,0,0,0-.02,0,0Z"/>
        <path d="m63.29,23.72c.56-4.01,2.65-5.64,2.95-9.73,0,3.16.88,4.16-2.95,9.73Z"/>
        <path class="cls-3" d="m12.76,25.83c.07,4.86-.46,2.06-.55,5.83-.96-2.37-.93-3.36.55-5.83,0-.02,0-.04,0,0Z"/>
      </g>
    </g>
  </g>
</svg>